<svg xmlns="http://www.w3.org/2000/svg" xmlns:xlink="http://www.w3.org/1999/xlink" width="150" zoomAndPan="magnify" viewBox="0 0 112.5 112.499997" height="150" preserveAspectRatio="xMidYMid meet" version="1.0"><defs><clipPath id="0d27461e3d"><path d="M 4.457031 4.457031 L 107.546875 4.457031 L 107.546875 107.546875 L 4.457031 107.546875 Z M 4.457031 4.457031 " clip-rule="nonzero"/></clipPath><clipPath id="3d793cadac"><path d="M 56 4.457031 C 27.535156 4.457031 4.457031 27.535156 4.457031 56 C 4.457031 84.46875 27.535156 107.546875 56 107.546875 C 84.46875 107.546875 107.546875 84.46875 107.546875 56 C 107.546875 27.535156 84.46875 4.457031 56 4.457031 Z M 56 4.457031 " clip-rule="nonzero"/></clipPath><clipPath id="8929691a97"><path d="M 0.457031 0.457031 L 103.546875 0.457031 L 103.546875 103.546875 L 0.457031 103.546875 Z M 0.457031 0.457031 " clip-rule="nonzero"/></clipPath><clipPath id="ec30167142"><path d="M 52 0.457031 C 23.535156 0.457031 0.457031 23.535156 0.457031 52 C 0.457031 80.46875 23.535156 103.546875 52 103.546875 C 80.46875 103.546875 103.546875 80.46875 103.546875 52 C 103.546875 23.535156 80.46875 0.457031 52 0.457031 Z M 52 0.457031 " clip-rule="nonzero"/></clipPath><clipPath id="e7135794fe"><rect x="0" width="104" y="0" height="104"/></clipPath><clipPath id="9f3e1f6353"><path d="M 19.988281 12.875 L 91.671875 12.875 L 91.671875 99.488281 L 19.988281 99.488281 Z M 19.988281 12.875 " clip-rule="nonzero"/></clipPath></defs><g clip-path="url(#0d27461e3d)"><g clip-path="url(#3d793cadac)"><g transform="matrix(1, 0, 0, 1, 4, 4)"><g clip-path="url(#e7135794fe)"><g clip-path="url(#8929691a97)"><g clip-path="url(#ec30167142)"><path fill="#001137" d="M 0.457031 0.457031 L 103.546875 0.457031 L 103.546875 103.546875 L 0.457031 103.546875 Z M 0.457031 0.457031 " fill-opacity="1" fill-rule="nonzero"/></g></g></g></g></g></g><g clip-path="url(#9f3e1f6353)"><path fill="#ff9860" d="M 82.167969 95.015625 C 82.289062 95.441406 82.039062 95.882812 81.613281 96.003906 C 81.542969 96.023438 81.46875 96.035156 81.394531 96.035156 L 81.113281 96.035156 C 80.710938 96.035156 80.355469 95.765625 80.25 95.375 C 78.910156 90.441406 77.84375 85.441406 77.953125 80.488281 C 78.074219 74.917969 80.679688 70.714844 83.921875 65.988281 C 88.730469 58.988281 90.722656 51.148438 89.902344 42.472656 C 88.582031 28.523438 79.414062 18.117188 65.605469 15.515625 C 54.933594 13.503906 41.679688 16.085938 34.578125 24.941406 C 30.054688 30.585938 28.601562 37.25 29.371094 44.519531 C 29.578125 46.484375 29.070312 47.992188 28.160156 49.691406 C 26.875 52.085938 25.160156 55.203125 23.015625 59.042969 C 22.566406 59.847656 22.257812 60.53125 22.089844 61.101562 C 21.976562 61.472656 22.160156 61.867188 22.515625 62.023438 C 23.21875 62.332031 24.917969 62.96875 27.613281 63.925781 C 28.480469 64.234375 28.695312 64.765625 28.710938 65.695312 C 28.808594 71.46875 28.90625 75.332031 29 77.285156 C 29.160156 80.511719 30.859375 82.410156 34.09375 82.972656 C 34.175781 82.992188 37.078125 83.375 42.796875 84.132812 C 45.972656 84.550781 47.09375 85.875 47.5625 89.011719 C 48.015625 92.039062 48.359375 95.074219 48.589844 98.113281 C 48.628906 98.617188 48.25 99.058594 47.742188 99.097656 C 47.703125 99.101562 47.664062 99.101562 47.625 99.101562 L 47.519531 99.097656 C 46.957031 99.066406 46.511719 98.605469 46.5 98.039062 C 46.441406 94.742188 46.050781 91.449219 45.328125 88.167969 C 44.984375 86.585938 43.789062 86.175781 42.101562 86.03125 C 39.433594 85.800781 36.835938 85.488281 34.3125 85.089844 C 29.578125 84.351562 27.140625 81.65625 26.996094 77.003906 C 26.847656 72.214844 26.800781 68.597656 26.855469 66.152344 C 26.859375 65.878906 26.679688 65.636719 26.417969 65.566406 C 24.582031 65.058594 23.050781 64.511719 21.820312 63.929688 C 19.644531 62.898438 19.589844 60.921875 20.703125 59.03125 C 20.777344 58.910156 20.957031 58.578125 21.25 58.03125 C 22.929688 54.90625 24.675781 51.742188 26.5 48.535156 C 27.765625 46.308594 27.300781 44.058594 27.203125 41.347656 C 26.929688 33.945312 29.875 25.976562 35.492188 20.960938 C 44.125 13.25 57.089844 11.414062 68.019531 13.996094 C 71.171875 14.742188 74.347656 16.101562 77.550781 18.078125 C 86.796875 23.789062 91.476562 33.65625 91.96875 44.433594 C 92.300781 51.730469 90.664062 58.527344 87.0625 64.824219 C 86.5 65.808594 85.269531 67.691406 83.371094 70.476562 C 81.015625 73.929688 79.851562 77.675781 79.882812 81.710938 C 79.921875 86.179688 80.953125 90.691406 82.167969 95.015625 Z M 82.167969 95.015625 " fill-opacity="1" fill-rule="nonzero"/></g><path fill="#ff9860" d="M 72.636719 62.222656 L 73.484375 64.644531 C 73.683594 65.214844 73.417969 65.84375 72.867188 66.09375 L 72.757812 66.144531 C 72.355469 66.324219 71.882812 66.148438 71.703125 65.746094 C 71.679688 65.699219 71.664062 65.644531 71.652344 65.59375 C 71.390625 64.457031 70.882812 63.09375 70.136719 61.503906 C 69.972656 61.15625 69.96875 60.804688 70.132812 60.460938 C 70.308594 60.078125 70.710938 59.855469 71.128906 59.90625 C 71.957031 60.003906 72.5625 60.066406 72.949219 60.09375 C 73.1875 60.113281 73.425781 60.09375 73.65625 60.046875 C 76.589844 59.429688 78.1875 57.546875 78.449219 54.398438 C 78.457031 54.265625 78.355469 54.144531 78.222656 54.136719 C 78.199219 54.132812 78.175781 54.136719 78.152344 54.140625 C 76.574219 54.464844 74.996094 54.425781 73.410156 54.027344 C 73.25 53.984375 73.082031 54.035156 72.96875 54.152344 C 70.609375 56.605469 67.726562 57.789062 64.320312 57.707031 C 64.199219 57.707031 64.101562 57.804688 64.101562 57.921875 C 64.101562 57.996094 64.136719 58.066406 64.195312 58.105469 C 64.734375 58.457031 65.523438 58.964844 66.5625 59.628906 C 68.539062 60.882812 69.746094 62.722656 70.1875 65.144531 C 70.273438 65.625 69.964844 66.082031 69.492188 66.1875 L 69.476562 66.191406 C 68.996094 66.296875 68.507812 66.023438 68.34375 65.558594 C 67.292969 62.558594 66.152344 61.546875 63.597656 60.152344 C 62.652344 59.636719 62.175781 58.863281 62.167969 57.828125 C 62.167969 57.640625 62.050781 57.472656 61.875 57.40625 L 60.1875 56.773438 C 59.910156 56.671875 59.601562 56.699219 59.34375 56.84375 C 56.382812 58.554688 52.78125 59.367188 49.539062 57.742188 C 46.546875 56.238281 45.027344 53.808594 44.976562 50.453125 C 44.972656 50.316406 44.863281 50.210938 44.726562 50.210938 C 44.722656 50.210938 44.71875 50.210938 44.71875 50.210938 C 41.257812 50.390625 37.144531 49.347656 36.082031 45.71875 C 35.980469 45.363281 35.785156 45.074219 35.5 44.847656 C 33.230469 43.0625 32.328125 40.816406 32.796875 38.109375 C 33.238281 35.507812 34.691406 34.164062 36.785156 32.933594 C 36.910156 32.859375 36.992188 32.726562 37 32.578125 C 37.171875 29.097656 38.945312 26.703125 42.316406 25.398438 C 43.21875 25.046875 44.105469 24.84375 44.972656 24.792969 C 45.125 24.785156 45.261719 24.703125 45.34375 24.570312 C 45.398438 24.488281 45.65625 24.1875 46.125 23.675781 C 47.90625 21.714844 50.132812 21.066406 52.804688 21.734375 C 53.328125 21.863281 53.660156 21.945312 53.796875 21.976562 C 53.925781 22.007812 54.0625 21.980469 54.167969 21.902344 C 56.972656 19.859375 59.898438 19.691406 62.953125 21.394531 C 63.066406 21.457031 63.199219 21.472656 63.320312 21.433594 C 66.835938 20.304688 69.691406 21.125 71.882812 23.890625 C 71.984375 24.019531 72.121094 24.117188 72.273438 24.167969 C 72.863281 24.382812 73.621094 24.402344 74.269531 24.636719 C 76.578125 25.46875 78.027344 27.15625 78.621094 29.703125 C 78.664062 29.882812 78.765625 30.042969 78.90625 30.15625 C 79.46875 30.613281 80.335938 30.828125 80.878906 31.195312 C 83.769531 33.152344 84.902344 35.917969 84.28125 39.492188 C 84.257812 39.632812 84.296875 39.773438 84.382812 39.882812 C 84.847656 40.449219 85.253906 41.035156 85.597656 41.644531 C 87.542969 45.09375 86.746094 49.472656 83.691406 52.027344 C 83.023438 52.585938 81.976562 53.167969 80.546875 53.78125 C 80.410156 53.839844 80.320312 53.96875 80.316406 54.117188 C 80.089844 59.121094 77.585938 61.742188 72.800781 61.980469 C 72.699219 61.988281 72.625 62.074219 72.628906 62.175781 C 72.628906 62.195312 72.632812 62.210938 72.636719 62.222656 Z M 46.671875 48.425781 C 46.75 48.6875 46.777344 49.242188 46.761719 50.089844 C 46.710938 52.078125 47.667969 54.078125 49.175781 55.199219 C 52.226562 57.464844 56.144531 56.851562 59.117188 54.75 C 59.40625 54.542969 59.777344 54.492188 60.113281 54.617188 C 61.429688 55.109375 62.28125 55.488281 63.417969 55.652344 C 67.050781 56.171875 69.960938 54.976562 72.15625 52.066406 C 72.363281 51.792969 72.722656 51.683594 73.046875 51.789062 C 75.238281 52.53125 77.324219 52.613281 79.308594 52.042969 C 83.652344 50.804688 85.996094 47.023438 84.078125 42.703125 C 83.75 41.96875 82.964844 41.304688 82.457031 40.703125 C 82.238281 40.445312 82.164062 40.097656 82.253906 39.773438 C 83.039062 36.992188 82.390625 34.757812 80.316406 33.074219 C 80.175781 32.960938 80.019531 32.871094 79.855469 32.804688 L 77.652344 31.929688 C 77.335938 31.800781 77.101562 31.519531 77.039062 31.183594 C 76.457031 28.089844 74.804688 25.925781 71.484375 26.179688 C 71.328125 26.191406 71.175781 26.144531 71.054688 26.042969 C 70.707031 25.746094 70.355469 24.988281 70.015625 24.644531 C 68.085938 22.710938 65.847656 22.394531 63.300781 23.695312 C 63.054688 23.820312 62.761719 23.792969 62.539062 23.625 C 59.75 21.496094 57.152344 21.640625 54.742188 24.058594 C 54.546875 24.25 54.253906 24.316406 53.996094 24.222656 C 53.300781 23.96875 52.785156 23.785156 52.457031 23.671875 C 49.859375 22.800781 47.875 24.175781 46.613281 26.328125 C 46.503906 26.511719 46.328125 26.644531 46.117188 26.699219 C 45.902344 26.753906 45.570312 26.785156 45.125 26.789062 C 42.699219 26.828125 40.707031 28.074219 39.589844 30.183594 C 38.96875 31.359375 38.929688 32.652344 38.9375 33.945312 C 38.9375 34.214844 38.757812 34.445312 38.5 34.503906 C 36.335938 35.015625 35.046875 36.367188 34.640625 38.5625 C 34.207031 40.875 35.515625 42.695312 37.445312 44.027344 C 37.636719 44.15625 37.757812 44.363281 37.78125 44.589844 C 37.890625 45.742188 38.636719 46.683594 40.015625 47.414062 C 41.902344 48.40625 43.835938 48.59375 45.828125 47.972656 C 46.183594 47.863281 46.558594 48.0625 46.671875 48.417969 C 46.671875 48.421875 46.671875 48.421875 46.671875 48.425781 Z M 46.671875 48.425781 " fill-opacity="1" fill-rule="nonzero"/><path fill="#ff9860" d="M 57.878906 27.171875 C 58.070312 27.222656 58.277344 27.195312 58.449219 27.089844 C 61.460938 25.265625 65.601562 25.601562 67.769531 28.515625 C 68.167969 29.058594 68.425781 29.40625 68.546875 29.566406 C 68.664062 29.722656 68.832031 29.835938 69.023438 29.886719 C 71.511719 30.558594 73.066406 32.152344 73.683594 34.667969 C 74.253906 36.992188 73.394531 38.351562 72.363281 40.34375 C 72.269531 40.523438 72.242188 40.726562 72.285156 40.925781 C 72.792969 43.285156 73.1875 45.496094 72.371094 47.699219 C 71.308594 50.570312 69.179688 51.855469 65.980469 51.5625 C 65.363281 51.507812 64.445312 51.246094 63.226562 50.78125 C 63.066406 50.722656 62.890625 50.71875 62.726562 50.769531 C 62.214844 50.929688 61.695312 51.375 61.066406 51.570312 C 58.535156 52.359375 54.867188 52.535156 52.507812 51.273438 C 49.242188 49.519531 47.332031 45.625 48.1875 41.871094 C 48.222656 41.707031 48.191406 41.535156 48.101562 41.398438 C 46.863281 39.539062 47.160156 36.820312 48.707031 35.007812 C 48.96875 34.699219 49.074219 34.292969 49 33.902344 C 47.925781 28.21875 53.171875 25.902344 57.878906 27.171875 Z M 66.269531 29.078125 C 64.746094 27.570312 62.722656 27.203125 60.199219 27.980469 C 60.175781 27.984375 60.164062 28.007812 60.171875 28.03125 C 60.175781 28.042969 60.179688 28.050781 60.191406 28.058594 L 62.554688 29.644531 C 62.609375 29.683594 62.679688 29.691406 62.746094 29.671875 C 63.734375 29.390625 64.855469 29.304688 66.113281 29.421875 C 66.222656 29.425781 66.320312 29.34375 66.324219 29.230469 C 66.328125 29.175781 66.308594 29.121094 66.269531 29.078125 Z M 55.929688 28.519531 C 54.09375 28.417969 52.601562 28.863281 51.457031 29.851562 C 51.011719 30.238281 50.722656 30.769531 50.640625 31.347656 L 50.464844 32.582031 C 50.433594 32.832031 50.609375 33.066406 50.859375 33.101562 C 50.9375 33.109375 51.015625 33.101562 51.089844 33.070312 L 53.855469 31.949219 C 53.980469 31.898438 54.078125 31.796875 54.125 31.667969 C 54.5 30.617188 55.132812 29.644531 56.019531 28.753906 C 56.074219 28.703125 56.074219 28.617188 56.019531 28.5625 C 55.996094 28.539062 55.960938 28.523438 55.929688 28.519531 Z M 56.34375 31.332031 C 56.808594 31.476562 57.101562 31.519531 57.21875 31.464844 C 58.25 30.964844 59.292969 30.652344 60.351562 30.527344 C 60.425781 30.519531 60.484375 30.449219 60.476562 30.375 C 60.472656 30.335938 60.453125 30.300781 60.421875 30.277344 L 58.652344 28.984375 C 58.5 28.871094 58.285156 28.890625 58.152344 29.03125 L 56.257812 31.003906 C 56.179688 31.082031 56.183594 31.207031 56.261719 31.285156 C 56.285156 31.304688 56.3125 31.324219 56.34375 31.332031 Z M 65.855469 33.023438 C 66.402344 33.527344 66.996094 33.925781 67.640625 34.226562 C 67.734375 34.269531 67.847656 34.230469 67.890625 34.132812 C 67.898438 34.125 67.902344 34.113281 67.902344 34.101562 C 68.007812 33.683594 68.035156 31.699219 67.511719 31.222656 C 66.996094 30.746094 65.019531 30.941406 64.617188 31.082031 C 64.515625 31.117188 64.464844 31.222656 64.5 31.320312 C 64.503906 31.332031 64.507812 31.34375 64.511719 31.351562 C 64.867188 31.96875 65.316406 32.527344 65.855469 33.023438 Z M 69.519531 31.84375 L 69.519531 35.570312 C 69.519531 35.761719 69.605469 35.941406 69.757812 36.0625 C 70.421875 36.589844 70.996094 37.285156 71.484375 38.160156 C 71.542969 38.257812 71.667969 38.292969 71.769531 38.234375 C 71.816406 38.207031 71.851562 38.164062 71.867188 38.113281 C 72.65625 35.390625 71.929688 33.273438 69.6875 31.753906 C 69.636719 31.722656 69.566406 31.738281 69.535156 31.789062 C 69.523438 31.804688 69.519531 31.824219 69.519531 31.84375 Z M 59.789062 36.433594 C 61.523438 35.542969 63.160156 35.0625 64.691406 34.992188 C 64.765625 34.992188 64.828125 34.925781 64.824219 34.847656 C 64.824219 34.824219 64.816406 34.796875 64.800781 34.777344 C 63.777344 33.253906 60.625 33.019531 59.058594 33.109375 C 58.609375 33.132812 58.324219 33.175781 58.207031 33.242188 C 57.777344 33.488281 57.628906 34.03125 57.875 34.460938 C 57.898438 34.503906 57.925781 34.542969 57.957031 34.582031 L 59.414062 36.355469 C 59.5 36.464844 59.65625 36.496094 59.789062 36.433594 Z M 54.269531 39.199219 C 54.277344 39.261719 54.332031 39.304688 54.394531 39.296875 C 54.429688 39.292969 54.460938 39.273438 54.476562 39.242188 C 55.140625 38.042969 56.109375 37.390625 57.378906 37.289062 C 57.519531 37.273438 57.621094 37.152344 57.609375 37.011719 C 57.605469 36.949219 57.578125 36.894531 57.535156 36.851562 C 56.511719 35.855469 56.035156 34.757812 56.113281 33.5625 C 56.121094 33.4375 56.023438 33.328125 55.894531 33.320312 C 55.832031 33.320312 55.773438 33.339844 55.726562 33.382812 C 53.914062 35.089844 54.039062 36.890625 54.269531 39.199219 Z M 53.003906 33.867188 L 51.277344 34.742188 C 51.160156 34.800781 51.089844 34.917969 51.082031 35.046875 C 51.070312 35.308594 51.160156 35.546875 51.351562 35.761719 C 51.445312 35.875 51.617188 35.886719 51.730469 35.785156 C 51.742188 35.777344 51.75 35.765625 51.761719 35.753906 L 53.15625 34.058594 C 53.199219 34.003906 53.195312 33.925781 53.140625 33.882812 C 53.101562 33.847656 53.046875 33.84375 53.003906 33.867188 Z M 49.0625 39.316406 C 49.3125 38.339844 49.785156 37.605469 50.476562 37.109375 C 50.636719 36.996094 50.675781 36.769531 50.558594 36.605469 C 50.546875 36.589844 50.535156 36.574219 50.519531 36.558594 L 50.007812 36.046875 C 49.910156 35.945312 49.75 35.945312 49.652344 36.039062 C 49.621094 36.070312 49.601562 36.105469 49.585938 36.144531 L 48.585938 39.289062 C 48.574219 39.3125 48.589844 39.339844 48.613281 39.351562 L 48.859375 39.429688 C 48.941406 39.457031 49.03125 39.410156 49.058594 39.328125 C 49.058594 39.324219 49.058594 39.320312 49.0625 39.316406 Z M 60.964844 38.339844 C 60.898438 38.410156 60.890625 38.519531 60.945312 38.597656 C 62.542969 40.90625 65.492188 40.652344 65.167969 37.359375 C 65.136719 37.03125 64.867188 36.769531 64.53125 36.746094 C 63.753906 36.691406 62.988281 36.800781 62.226562 37.070312 C 62.183594 37.085938 62.144531 37.113281 62.113281 37.148438 Z M 63.882812 45.042969 L 66.738281 43.886719 C 66.898438 43.820312 67.003906 43.664062 67.003906 43.488281 L 67.003906 42.980469 C 67.003906 42.777344 67.039062 42.578125 67.105469 42.390625 C 67.472656 41.359375 67.632812 40.699219 67.582031 40.40625 C 67.394531 39.308594 67.191406 38.140625 66.980469 36.910156 C 66.976562 36.898438 66.964844 36.886719 66.953125 36.886719 L 66.824219 36.886719 C 66.761719 36.886719 66.710938 36.9375 66.710938 37 C 66.710938 37.003906 66.710938 37.011719 66.710938 37.015625 C 66.910156 38.59375 66.542969 39.957031 65.609375 41.109375 C 65.453125 41.300781 65.371094 41.546875 65.378906 41.796875 C 65.417969 42.925781 64.882812 43.941406 63.769531 44.851562 C 63.71875 44.886719 63.707031 44.957031 63.742188 45.007812 C 63.777344 45.050781 63.835938 45.066406 63.882812 45.042969 Z M 69.183594 40.191406 C 69.132812 40.855469 69.042969 41.519531 68.917969 42.191406 C 68.910156 42.25 68.949219 42.308594 69.011719 42.316406 C 69.039062 42.324219 69.070312 42.316406 69.097656 42.296875 C 69.550781 41.957031 70.511719 40.914062 70.558594 40.296875 C 70.605469 39.671875 69.800781 38.503906 69.394531 38.101562 C 69.351562 38.058594 69.28125 38.058594 69.238281 38.101562 C 69.21875 38.121094 69.207031 38.152344 69.207031 38.183594 C 69.238281 38.863281 69.230469 39.53125 69.183594 40.191406 Z M 56.050781 43.007812 L 58.253906 38.597656 C 58.316406 38.476562 58.265625 38.328125 58.144531 38.265625 C 58.097656 38.242188 58.042969 38.234375 57.988281 38.246094 C 56.667969 38.5 55.835938 39.6875 55.015625 40.941406 C 54.898438 41.117188 54.886719 41.347656 54.984375 41.535156 L 55.730469 43.011719 C 55.777344 43.101562 55.886719 43.132812 55.976562 43.085938 C 56.007812 43.066406 56.035156 43.039062 56.050781 43.007812 Z M 51.929688 38.773438 L 50.214844 41.125 C 50.09375 41.289062 50.101562 41.515625 50.234375 41.671875 C 50.976562 42.574219 51.957031 43.34375 53.171875 43.984375 C 53.25 44.027344 53.351562 43.996094 53.394531 43.917969 C 53.414062 43.882812 53.417969 43.839844 53.40625 43.800781 L 51.992188 38.785156 C 51.984375 38.769531 51.964844 38.757812 51.945312 38.761719 C 51.941406 38.761719 51.933594 38.769531 51.929688 38.773438 Z M 63.195312 41.832031 L 62.113281 41.667969 C 62.003906 41.648438 61.90625 41.605469 61.820312 41.535156 L 60.042969 40.078125 C 59.929688 39.984375 59.765625 40 59.671875 40.109375 C 58.683594 41.257812 58.050781 42.484375 57.773438 43.785156 C 57.660156 44.328125 58.007812 44.863281 58.550781 44.976562 C 58.574219 44.980469 58.59375 44.984375 58.617188 44.988281 C 60.988281 45.324219 62.023438 44.007812 63.3125 42.113281 C 63.371094 42.027344 63.347656 41.917969 63.265625 41.859375 C 63.242188 41.847656 63.21875 41.835938 63.195312 41.832031 Z M 70.890625 42.625 L 67.855469 45.050781 C 67.820312 45.078125 67.796875 45.113281 67.777344 45.152344 C 67.117188 46.753906 66.109375 48.15625 64.761719 49.367188 C 64.679688 49.4375 64.675781 49.5625 64.746094 49.644531 C 64.773438 49.675781 64.8125 49.695312 64.855469 49.703125 C 69.929688 50.609375 71.980469 47.269531 71.125 42.710938 C 71.113281 42.632812 71.035156 42.582031 70.957031 42.597656 C 70.933594 42.601562 70.910156 42.609375 70.890625 42.625 Z M 55.949219 50.328125 C 54.851562 49.261719 54.148438 48.054688 53.839844 46.703125 C 53.820312 46.621094 53.773438 46.546875 53.699219 46.496094 L 49.492188 43.625 C 49.480469 43.613281 49.464844 43.617188 49.457031 43.628906 C 49.453125 43.636719 49.453125 43.640625 49.453125 43.648438 C 49.945312 47.6875 52.085938 49.960938 55.878906 50.476562 C 55.925781 50.480469 55.96875 50.445312 55.976562 50.398438 C 55.976562 50.371094 55.96875 50.34375 55.949219 50.328125 Z M 54.863281 44.082031 C 54.808594 44.132812 54.960938 44.386719 55.199219 44.644531 C 55.441406 44.90625 55.679688 45.074219 55.734375 45.023438 C 55.789062 44.972656 55.640625 44.71875 55.398438 44.460938 C 55.160156 44.199219 54.917969 44.03125 54.863281 44.082031 Z M 59.878906 46.722656 L 62.4375 48.824219 C 62.613281 48.96875 62.875 48.949219 63.035156 48.785156 L 65.347656 46.375 C 65.414062 46.304688 65.417969 46.195312 65.347656 46.128906 C 65.308594 46.085938 65.25 46.070312 65.191406 46.082031 C 62.660156 46.53125 60.917969 46.675781 59.96875 46.511719 C 59.90625 46.5 59.84375 46.539062 59.832031 46.605469 C 59.824219 46.648438 59.84375 46.695312 59.878906 46.722656 Z M 55.558594 46.558594 C 56.113281 47.875 56.976562 49.019531 58.148438 49.992188 C 58.449219 50.25 58.851562 50.347656 59.238281 50.265625 L 60.417969 50.015625 C 60.570312 49.980469 60.664062 49.828125 60.632812 49.675781 C 60.617188 49.605469 60.574219 49.542969 60.511719 49.5 C 59.402344 48.789062 58.476562 47.925781 57.726562 46.90625 C 57.679688 46.839844 57.609375 46.792969 57.53125 46.777344 L 55.71875 46.367188 C 55.644531 46.347656 55.566406 46.394531 55.550781 46.46875 C 55.542969 46.5 55.546875 46.53125 55.558594 46.558594 Z M 55.558594 46.558594 " fill-opacity="1" fill-rule="nonzero"/><path fill="#ff9860" d="M 43.738281 38.726562 C 43.769531 39.03125 43.542969 39.304688 43.234375 39.335938 C 43.191406 39.339844 43.144531 39.339844 43.101562 39.332031 L 42.546875 39.253906 C 42.136719 39.199219 41.832031 38.839844 41.84375 38.425781 C 41.871094 37.554688 42.101562 36.851562 42.542969 36.3125 C 42.972656 35.796875 44.035156 35.382812 43.976562 34.226562 C 43.925781 33.144531 42.121094 32.683594 41.734375 33.71875 C 41.636719 33.988281 41.582031 34.253906 41.570312 34.519531 C 41.550781 34.886719 41.246094 35.167969 40.886719 35.152344 C 40.863281 35.152344 40.84375 35.148438 40.820312 35.144531 L 40.585938 35.113281 C 40.140625 35.050781 39.800781 34.679688 39.785156 34.230469 C 39.621094 30.214844 46.472656 30.355469 45.757812 35.230469 C 45.714844 35.519531 45.574219 35.785156 45.363281 35.984375 C 44.554688 36.75 43.613281 37.433594 43.738281 38.726562 Z M 43.738281 38.726562 " fill-opacity="1" fill-rule="nonzero"/><path fill="#ff9860" d="M 75.546875 42.285156 C 75.460938 42.542969 75.195312 42.695312 74.929688 42.632812 L 74.503906 42.535156 C 74.113281 42.445312 73.855469 42.070312 73.917969 41.675781 C 74.183594 39.863281 75.0625 38.902344 76.546875 38.792969 C 78.570312 38.644531 80.007812 39.691406 80.121094 41.757812 C 80.195312 43.117188 79.457031 43.679688 78.441406 44.703125 C 77.796875 45.351562 78.21875 47.542969 76.546875 46.785156 C 76.410156 46.722656 76.3125 46.605469 76.269531 46.464844 C 75.921875 45.277344 76.335938 44.066406 77.328125 43.226562 C 77.90625 42.726562 78.445312 42.328125 78.320312 41.578125 C 78.203125 40.820312 77.75 40.453125 76.964844 40.472656 C 76.472656 40.484375 76.039062 40.808594 75.878906 41.285156 C 75.707031 41.808594 75.59375 42.140625 75.546875 42.285156 Z M 75.546875 42.285156 " fill-opacity="1" fill-rule="nonzero"/><path fill="#ff9860" d="M 43.957031 41.527344 C 43.957031 41.671875 43.929688 41.808594 43.875 41.941406 C 43.820312 42.074219 43.742188 42.191406 43.640625 42.292969 C 43.539062 42.394531 43.421875 42.472656 43.289062 42.527344 C 43.15625 42.582031 43.019531 42.609375 42.875 42.609375 C 42.734375 42.609375 42.59375 42.582031 42.460938 42.527344 C 42.332031 42.472656 42.214844 42.394531 42.113281 42.292969 C 42.011719 42.191406 41.933594 42.074219 41.878906 41.941406 C 41.824219 41.808594 41.796875 41.671875 41.796875 41.527344 C 41.796875 41.386719 41.824219 41.246094 41.878906 41.113281 C 41.933594 40.980469 42.011719 40.867188 42.113281 40.765625 C 42.214844 40.664062 42.332031 40.585938 42.460938 40.53125 C 42.59375 40.476562 42.734375 40.449219 42.875 40.449219 C 43.019531 40.449219 43.15625 40.476562 43.289062 40.53125 C 43.421875 40.585938 43.539062 40.664062 43.640625 40.765625 C 43.742188 40.867188 43.820312 40.980469 43.875 41.113281 C 43.929688 41.246094 43.957031 41.386719 43.957031 41.527344 Z M 43.957031 41.527344 " fill-opacity="1" fill-rule="nonzero"/><path fill="#ff9860" d="M 77.976562 49.238281 C 77.976562 49.503906 77.882812 49.734375 77.691406 49.921875 C 77.503906 50.113281 77.273438 50.207031 77.007812 50.207031 C 76.738281 50.207031 76.511719 50.113281 76.320312 49.921875 C 76.132812 49.734375 76.035156 49.503906 76.035156 49.238281 C 76.035156 48.96875 76.132812 48.742188 76.320312 48.550781 C 76.511719 48.363281 76.738281 48.269531 77.007812 48.269531 C 77.273438 48.269531 77.503906 48.363281 77.691406 48.550781 C 77.882812 48.742188 77.976562 48.96875 77.976562 49.238281 Z M 77.976562 49.238281 " fill-opacity="1" fill-rule="nonzero"/></svg>