<svg xmlns="http://www.w3.org/2000/svg" xmlns:xlink="http://www.w3.org/1999/xlink" width="150" zoomAndPan="magnify" viewBox="0 0 112.5 112.499997" height="150" preserveAspectRatio="xMidYMid meet" version="1.0"><defs><clipPath id="96232dcda6"><path d="M 4.457031 4.457031 L 107.546875 4.457031 L 107.546875 107.546875 L 4.457031 107.546875 Z M 4.457031 4.457031 " clip-rule="nonzero"/></clipPath><clipPath id="81f40802e4"><path d="M 56 4.457031 C 27.535156 4.457031 4.457031 27.535156 4.457031 56 C 4.457031 84.46875 27.535156 107.546875 56 107.546875 C 84.46875 107.546875 107.546875 84.46875 107.546875 56 C 107.546875 27.535156 84.46875 4.457031 56 4.457031 Z M 56 4.457031 " clip-rule="nonzero"/></clipPath><clipPath id="e88925a654"><path d="M 0.457031 0.457031 L 103.546875 0.457031 L 103.546875 103.546875 L 0.457031 103.546875 Z M 0.457031 0.457031 " clip-rule="nonzero"/></clipPath><clipPath id="6edcbb2e1e"><path d="M 52 0.457031 C 23.535156 0.457031 0.457031 23.535156 0.457031 52 C 0.457031 80.46875 23.535156 103.546875 52 103.546875 C 80.46875 103.546875 103.546875 80.46875 103.546875 52 C 103.546875 23.535156 80.46875 0.457031 52 0.457031 Z M 52 0.457031 " clip-rule="nonzero"/></clipPath><clipPath id="96f66071cd"><rect x="0" width="104" y="0" height="104"/></clipPath><clipPath id="8c80eaf57f"><path d="M 23.371094 18.457031 L 88.332031 18.457031 L 88.332031 100.589844 L 23.371094 100.589844 Z M 23.371094 18.457031 " clip-rule="nonzero"/></clipPath></defs><g clip-path="url(#96232dcda6)"><g clip-path="url(#81f40802e4)"><g transform="matrix(1, 0, 0, 1, 4, 4)"><g clip-path="url(#96f66071cd)"><g clip-path="url(#e88925a654)"><g clip-path="url(#6edcbb2e1e)"><path fill="#001137" d="M 0.457031 0.457031 L 103.546875 0.457031 L 103.546875 103.546875 L 0.457031 103.546875 Z M 0.457031 0.457031 " fill-opacity="1" fill-rule="nonzero"/></g></g></g></g></g></g><g clip-path="url(#8c80eaf57f)"><path fill="#ff9860" d="M 81.945312 76.90625 C 76.363281 82.488281 69.230469 85.574219 61.929688 86.222656 C 61.128906 86.292969 60.4375 85.632812 60.4375 84.828125 C 60.4375 84.09375 61 83.503906 61.734375 83.433594 C 68.90625 82.785156 75.335938 79.585938 80.125 74.722656 C 80.28125 74.609375 80.394531 74.46875 80.507812 74.316406 C 85.566406 68.960938 88.667969 61.742188 88.625 53.808594 C 88.527344 38.320312 76.09375 25.253906 60.621094 24.4375 C 43.582031 23.535156 29.433594 37.136719 29.433594 53.992188 C 29.433594 64.28125 34.703125 73.34375 42.695312 78.640625 C 42.820312 78.769531 42.976562 78.851562 43.144531 78.910156 C 47.019531 81.390625 51.515625 82.96875 56.335938 83.417969 C 57.070312 83.488281 57.632812 84.082031 57.632812 84.8125 C 57.632812 85.632812 56.941406 86.292969 56.140625 86.222656 C 47.9375 85.492188 39.945312 81.683594 34.140625 74.722656 C 24.359375 63.011719 24.148438 45.703125 33.6875 33.796875 C 45.964844 18.476562 68.484375 17.574219 81.972656 31.0625 C 82.523438 31.609375 83.410156 31.609375 83.960938 31.0625 C 84.507812 30.511719 84.507812 29.625 83.960938 29.074219 C 67.074219 12.175781 37.199219 16.039062 26.261719 40.632812 C 22.582031 48.902344 22.441406 58.390625 25.992188 66.703125 C 31.953125 80.683594 43.921875 88.140625 56.324219 89.085938 C 57.054688 89.140625 57.632812 89.734375 57.632812 90.480469 L 57.632812 90.636719 C 57.632812 91.410156 57.011719 92.03125 56.238281 92.03125 L 53.40625 92.03125 C 49.488281 92.03125 46.316406 95.230469 46.359375 99.148438 C 46.359375 99.894531 47.007812 100.484375 47.769531 100.484375 L 70.332031 100.484375 C 71.078125 100.484375 71.726562 99.894531 71.742188 99.148438 C 71.78125 95.230469 68.613281 92.03125 64.695312 92.03125 L 61.859375 92.03125 C 61.085938 92.03125 60.464844 91.410156 60.464844 90.636719 L 60.464844 90.464844 C 60.464844 89.734375 61.042969 89.140625 61.777344 89.085938 C 69.867188 88.464844 77.800781 85.066406 83.972656 78.882812 C 84.523438 78.332031 84.523438 77.445312 83.972656 76.894531 C 83.425781 76.34375 82.507812 76.34375 81.957031 76.894531 Z M 64.988281 97.683594 L 53.066406 97.683594 C 51.375 97.683594 51.121094 95.144531 52.800781 94.90625 C 52.996094 94.878906 53.195312 94.863281 53.390625 94.863281 L 64.664062 94.863281 C 64.863281 94.863281 65.058594 94.863281 65.257812 94.90625 C 66.933594 95.144531 66.679688 97.683594 64.988281 97.683594 Z M 85.804688 53.992188 C 85.804688 60.769531 83.253906 66.957031 79.070312 71.679688 C 78.546875 70.988281 78.351562 69.890625 78.28125 69.15625 C 78.25 68.832031 78.222656 68.492188 78.195312 68.15625 C 78.082031 66.632812 77.957031 64.898438 76.957031 63.421875 C 76.023438 62.023438 74.601562 61.265625 73.363281 60.585938 C 72.683594 60.222656 72.050781 59.882812 71.53125 59.472656 C 69.878906 58.191406 68.921875 55.839844 69.035156 53.316406 C 69.078125 52.132812 69.34375 51.171875 69.808594 50.453125 C 70.121094 49.976562 70.570312 49.523438 71.050781 49.046875 C 71.234375 48.863281 71.429688 48.679688 71.601562 48.480469 C 72.277344 47.777344 73.191406 46.675781 73.445312 45.269531 C 73.742188 43.5625 72.867188 41.84375 71.417969 41.265625 C 70.402344 40.855469 69.414062 41.082031 68.625 41.25 L 68.289062 41.320312 C 67.824219 41.40625 67.539062 41.363281 67.527344 41.390625 C 67.527344 41.363281 67.5 41.222656 67.527344 40.96875 C 67.824219 39.234375 69.472656 37.867188 71.132812 36.613281 L 71.246094 36.53125 C 72.304688 35.742188 73.445312 34.882812 74.363281 33.808594 C 74.855469 33.230469 75.730469 33.105469 76.320312 33.597656 C 82.113281 38.515625 85.792969 45.816406 85.792969 53.992188 Z M 71.375 30.273438 C 72.21875 30.722656 72.417969 31.863281 71.726562 32.527344 C 71.105469 33.132812 70.34375 33.695312 69.570312 34.289062 L 69.445312 34.375 C 67.414062 35.894531 65.214844 37.742188 64.75 40.503906 C 64.539062 41.773438 64.890625 42.574219 65.230469 43.042969 C 65.949219 44.011719 67.257812 44.394531 68.824219 44.097656 L 69.203125 44.011719 C 69.640625 43.914062 70.132812 43.816406 70.359375 43.902344 C 70.542969 43.972656 70.710938 44.394531 70.65625 44.789062 C 70.542969 45.449219 69.964844 46.113281 69.554688 46.550781 C 69.386719 46.71875 69.21875 46.886719 69.050781 47.058594 C 68.484375 47.621094 67.90625 48.199219 67.429688 48.933594 C 66.679688 50.074219 66.273438 51.511719 66.203125 53.214844 C 66.0625 56.683594 67.398438 59.867188 69.796875 61.714844 C 70.515625 62.265625 71.277344 62.6875 72.023438 63.082031 C 73.078125 63.644531 74.082031 64.195312 74.617188 65 C 75.195312 65.871094 75.292969 67.085938 75.375 68.382812 C 75.40625 68.746094 75.433594 69.101562 75.460938 69.453125 C 75.617188 70.933594 75.984375 72.015625 76.449219 72.820312 C 76.773438 73.382812 76.632812 74.117188 76.125 74.527344 C 71.488281 78.414062 65.527344 80.769531 59.027344 80.769531 C 53.914062 80.769531 49.148438 79.316406 45.074219 76.808594 C 44.820312 76.652344 44.597656 76.414062 44.496094 76.132812 C 44.046875 74.863281 44.230469 73.285156 45.019531 72.285156 C 45.695312 71.425781 46.753906 70.847656 47.867188 70.226562 C 48.8125 69.707031 49.78125 69.171875 50.65625 68.410156 C 52.839844 66.519531 53.941406 63.449219 53.460938 60.601562 C 53.375 60.09375 53.25 59.585938 53.109375 59.09375 C 52.910156 58.359375 52.730469 57.65625 52.769531 57.050781 C 52.871094 55.597656 54.152344 54.371094 55.519531 53.0625 L 56.167969 52.425781 C 58.238281 50.398438 59.410156 48.382812 59.746094 46.296875 C 60.15625 43.789062 59.128906 40.644531 56.378906 39.476562 C 55.492188 39.109375 54.589844 39.011719 53.785156 38.925781 C 52.769531 38.828125 51.925781 38.726562 50.105469 38.066406 C 49.78125 37.953125 49.515625 37.699219 49.347656 37.402344 C 49.164062 37.066406 49.035156 37.007812 48.980469 36.953125 C 49.078125 36.824219 49.304688 36.613281 49.671875 36.402344 C 50.023438 36.207031 50.390625 36.007812 50.753906 35.8125 C 52.445312 34.910156 54.378906 33.878906 55.519531 31.992188 C 56.210938 30.863281 56.519531 29.738281 56.476562 28.652344 C 56.449219 27.875 57.113281 27.269531 57.886719 27.226562 C 58.265625 27.214844 58.648438 27.199219 59.042969 27.199219 C 63.496094 27.199219 67.683594 28.3125 71.386719 30.257812 Z M 32.25 53.992188 C 32.25 41.152344 41.339844 30.414062 53.40625 27.820312 C 53.8125 28.664062 53.730469 29.511719 53.109375 30.539062 C 52.363281 31.765625 50.9375 32.527344 49.429688 33.332031 C 49.035156 33.542969 48.65625 33.753906 48.273438 33.964844 C 46.527344 34.964844 45.765625 36.402344 46.230469 37.796875 C 46.441406 38.445312 46.878906 38.871094 47.261719 39.207031 C 48.738281 40.488281 50.542969 41.320312 52.476562 41.617188 C 52.8125 41.675781 53.152344 41.703125 53.488281 41.746094 C 54.152344 41.816406 54.773438 41.871094 55.265625 42.082031 C 56.605469 42.648438 57.183594 44.449219 56.957031 45.847656 C 56.71875 47.324219 55.816406 48.820312 54.195312 50.410156 L 53.574219 51.019531 C 51.953125 52.566406 50.136719 54.316406 49.964844 56.867188 C 49.894531 57.953125 50.164062 58.953125 50.402344 59.828125 C 50.515625 60.234375 50.628906 60.65625 50.699219 61.066406 C 51.007812 62.96875 50.277344 65.027344 48.824219 66.296875 C 48.175781 66.859375 47.371094 67.308594 46.511719 67.773438 C 45.203125 68.507812 43.851562 69.253906 42.820312 70.550781 C 42.484375 70.972656 42.214844 71.441406 42.003906 71.945312 C 41.609375 72.90625 40.382812 73.203125 39.679688 72.453125 C 35.082031 67.648438 32.25 61.152344 32.25 53.992188 Z M 32.25 53.992188 " fill-opacity="1" fill-rule="nonzero"/></g></svg>