<svg xmlns="http://www.w3.org/2000/svg" xmlns:xlink="http://www.w3.org/1999/xlink" width="150" zoomAndPan="magnify" viewBox="0 0 112.5 112.499997" height="150" preserveAspectRatio="xMidYMid meet" version="1.0"><defs><clipPath id="51cb3254f6"><path d="M 15 49 L 96 49 L 96 103.789062 L 15 103.789062 Z M 15 49 " clip-rule="nonzero"/></clipPath><clipPath id="c6b7956d90"><path d="M 12 11.199219 L 100.507812 11.199219 L 100.507812 70 L 12 70 Z M 12 11.199219 " clip-rule="nonzero"/></clipPath></defs><g clip-path="url(#51cb3254f6)"><path fill="#ffae43" d="M 15.75 103.722656 L 15.75 77.671875 L 37.535156 77.671875 L 37.535156 103.722656 Z M 65.957031 103.722656 L 65.957031 66.460938 L 44.484375 66.460938 L 44.484375 103.722656 Z M 95.007812 103.722656 L 95.007812 49.726562 L 73.21875 49.726562 L 73.21875 103.722656 Z M 95.007812 103.722656 " fill-opacity="1" fill-rule="nonzero"/></g><g clip-path="url(#c6b7956d90)"><path fill="#ffae43" d="M 15.015625 69.753906 C 13.84375 69.320312 11.742188 68.148438 12.390625 65.410156 C 12.851562 63.480469 14.457031 62.039062 16.390625 61.601562 C 24.402344 59.769531 53.148438 51.285156 88.691406 18.148438 L 84.113281 13.410156 L 100.691406 11.207031 L 98.484375 26.679688 L 93.75 22.890625 C 93.75 22.890625 63.378906 56.460938 16.359375 69.796875 C 15.90625 69.929688 15.460938 69.914062 15.015625 69.753906 Z M 15.015625 69.753906 " fill-opacity="1" fill-rule="nonzero"/></g></svg>