<svg xmlns="http://www.w3.org/2000/svg" xmlns:xlink="http://www.w3.org/1999/xlink" width="150" zoomAndPan="magnify" viewBox="0 0 112.5 112.499997" height="150" preserveAspectRatio="xMidYMid meet" version="1.0"><defs><clipPath id="d2c15f86a8"><path d="M 4.457031 4.457031 L 107.546875 4.457031 L 107.546875 107.546875 L 4.457031 107.546875 Z M 4.457031 4.457031 " clip-rule="nonzero"/></clipPath><clipPath id="3eea6c843b"><path d="M 56 4.457031 C 27.535156 4.457031 4.457031 27.535156 4.457031 56 C 4.457031 84.46875 27.535156 107.546875 56 107.546875 C 84.46875 107.546875 107.546875 84.46875 107.546875 56 C 107.546875 27.535156 84.46875 4.457031 56 4.457031 Z M 56 4.457031 " clip-rule="nonzero"/></clipPath><clipPath id="a1b96b221f"><path d="M 0.457031 0.457031 L 103.546875 0.457031 L 103.546875 103.546875 L 0.457031 103.546875 Z M 0.457031 0.457031 " clip-rule="nonzero"/></clipPath><clipPath id="a30ef32ac0"><path d="M 52 0.457031 C 23.535156 0.457031 0.457031 23.535156 0.457031 52 C 0.457031 80.46875 23.535156 103.546875 52 103.546875 C 80.46875 103.546875 103.546875 80.46875 103.546875 52 C 103.546875 23.535156 80.46875 0.457031 52 0.457031 Z M 52 0.457031 " clip-rule="nonzero"/></clipPath><clipPath id="cc13e9970f"><rect x="0" width="104" y="0" height="104"/></clipPath><clipPath id="13724bcf7d"><path d="M 50 23.183594 L 62 23.183594 L 62 35 L 50 35 Z M 50 23.183594 " clip-rule="nonzero"/></clipPath><clipPath id="ec28804ca3"><path d="M 15.671875 60 L 38 60 L 38 83 L 15.671875 83 Z M 15.671875 60 " clip-rule="nonzero"/></clipPath><clipPath id="ce3ee4cf0c"><path d="M 74 60 L 96.316406 60 L 96.316406 83 L 74 83 Z M 74 60 " clip-rule="nonzero"/></clipPath><clipPath id="444c667269"><path d="M 44 72 L 68 72 L 68 88.894531 L 44 88.894531 Z M 44 72 " clip-rule="nonzero"/></clipPath></defs><g clip-path="url(#d2c15f86a8)"><g clip-path="url(#3eea6c843b)"><g transform="matrix(1, 0, 0, 1, 4, 4)"><g clip-path="url(#cc13e9970f)"><g clip-path="url(#a1b96b221f)"><g clip-path="url(#a30ef32ac0)"><path fill="#ffc39c" d="M 0.457031 0.457031 L 103.546875 0.457031 L 103.546875 103.546875 L 0.457031 103.546875 Z M 0.457031 0.457031 " fill-opacity="1" fill-rule="nonzero"/></g></g></g></g></g></g><g clip-path="url(#13724bcf7d)"><path fill="#000000" d="M 54.578125 23.367188 C 52.742188 23.863281 51.375 25.140625 50.75 26.929688 C 50.410156 27.878906 50.386719 29.496094 50.699219 30.410156 C 51.570312 32.992188 54.175781 34.59375 56.765625 34.152344 C 59.667969 33.65625 61.570312 31.269531 61.414062 28.324219 C 61.230469 24.894531 57.898438 22.480469 54.578125 23.367188 Z M 54.578125 23.367188 " fill-opacity="1" fill-rule="nonzero"/></g><path fill="#000000" d="M 50.699219 36.210938 C 49.863281 36.328125 49.382812 36.589844 48.796875 37.214844 C 48.121094 37.921875 44.410156 42.445312 44.042969 42.992188 C 43.691406 43.554688 42.363281 50.097656 42.480469 50.789062 C 42.652344 51.859375 43.523438 52.5625 44.667969 52.550781 C 45.359375 52.539062 46.050781 52.183594 46.402344 51.652344 C 46.519531 51.457031 46.871094 49.980469 47.207031 48.300781 C 47.78125 45.328125 47.792969 45.261719 48.316406 44.582031 C 48.613281 44.207031 48.886719 43.929688 48.925781 43.984375 C 48.964844 44.023438 49.003906 46.527344 49.003906 49.550781 L 49.003906 55.054688 L 50.113281 54.988281 C 51.804688 54.882812 61.972656 54.921875 62.441406 55.027344 L 62.871094 55.105469 L 62.898438 49.109375 L 62.9375 43.109375 L 64.292969 44.296875 C 65.035156 44.949219 65.816406 45.574219 66.011719 45.679688 C 66.53125 45.9375 67.417969 45.914062 67.914062 45.601562 C 68.796875 45.066406 73.757812 41.128906 73.96875 40.800781 C 74.125 40.566406 74.203125 40.1875 74.203125 39.71875 C 74.203125 38.925781 73.914062 38.351562 73.277344 37.882812 C 72.898438 37.59375 72.039062 37.4375 71.558594 37.566406 C 71.390625 37.605469 70.335938 38.335938 69.226562 39.183594 C 68.132812 40.03125 67.144531 40.777344 67.054688 40.828125 C 66.9375 40.90625 66.21875 40.28125 64.710938 38.78125 C 63.367188 37.425781 62.351562 36.523438 62.027344 36.382812 C 61.558594 36.171875 60.996094 36.148438 56.425781 36.121094 C 53.640625 36.121094 51.050781 36.148438 50.699219 36.210938 Z M 50.699219 36.210938 " fill-opacity="1" fill-rule="nonzero"/><path fill="#000000" d="M 22.101562 48.246094 C 20.527344 48.914062 19.628906 49.746094 18.953125 51.179688 C 18.5625 52.003906 18.535156 52.144531 18.535156 53.554688 C 18.535156 54.976562 18.5625 55.09375 18.953125 55.914062 C 20.671875 59.410156 25.226562 60.230469 27.949219 57.503906 C 29.210938 56.253906 29.835938 54.363281 29.550781 52.679688 C 29.226562 50.804688 28.09375 49.25 26.453125 48.441406 C 25.65625 48.066406 25.4375 48.011719 24.199219 47.988281 C 23 47.949219 22.742188 47.972656 22.101562 48.246094 Z M 22.101562 48.246094 " fill-opacity="1" fill-rule="nonzero"/><path fill="#000000" d="M 86.15625 48.195312 C 85.164062 48.519531 84.65625 48.847656 83.851562 49.707031 C 82.652344 50.972656 82.105469 52.667969 82.378906 54.296875 C 82.796875 56.800781 84.617188 58.640625 87.144531 59.070312 C 89.851562 59.527344 92.652344 57.609375 93.355469 54.804688 C 93.449219 54.441406 93.488281 53.75 93.449219 53.097656 C 93.316406 51.023438 92.144531 49.328125 90.242188 48.429688 C 89.488281 48.078125 89.203125 48.011719 88.132812 47.988281 C 87.195312 47.960938 86.714844 48.011719 86.15625 48.195312 Z M 86.15625 48.195312 " fill-opacity="1" fill-rule="nonzero"/><path fill="#000000" d="M 50.828125 57.167969 C 44.421875 57.558594 37.742188 58.847656 33.25 60.558594 C 31.113281 61.363281 29.578125 62.160156 30.164062 62.160156 C 30.214844 62.160156 30.539062 62.394531 30.867188 62.667969 C 31.542969 63.230469 31.90625 63.308594 35.074219 63.59375 C 36.910156 63.765625 37.792969 64.167969 38.824219 65.289062 C 39.722656 66.253906 40.113281 67.21875 40.113281 68.433594 C 40.113281 70.207031 39.003906 71.601562 37.234375 72.070312 C 36.714844 72.214844 33.785156 72.097656 31.816406 71.875 L 31.296875 71.808594 L 31.882812 72.082031 C 33.015625 72.605469 35.449219 73.375 37.78125 73.960938 C 40.125 74.546875 43.824219 75.238281 44.003906 75.121094 C 44.058594 75.097656 44.136719 74.898438 44.1875 74.679688 C 44.316406 74.078125 45.175781 72.851562 45.945312 72.160156 C 47.027344 71.183594 48.25 70.636719 49.824219 70.441406 L 50.503906 70.347656 L 49.917969 69.699219 C 48.796875 68.457031 48.042969 66.386719 48.027344 64.597656 C 48.027344 63.726562 48.339844 62.238281 48.707031 61.390625 C 49.355469 59.867188 50.839844 58.300781 52.378906 57.53125 L 53.277344 57.074219 L 52.378906 57.101562 C 51.882812 57.113281 51.191406 57.140625 50.828125 57.167969 Z M 50.828125 57.167969 " fill-opacity="1" fill-rule="nonzero"/><path fill="#000000" d="M 59.605469 57.558594 C 61.441406 58.484375 62.964844 60.359375 63.601562 62.488281 C 63.980469 63.738281 63.929688 65.746094 63.484375 67.023438 C 63.105469 68.09375 62.546875 69.085938 61.84375 69.878906 L 61.425781 70.347656 L 62.183594 70.453125 C 64.644531 70.742188 66.519531 72.082031 67.507812 74.234375 C 67.9375 75.148438 67.992188 75.214844 68.316406 75.148438 C 68.511719 75.109375 69.554688 74.925781 70.621094 74.730469 C 72.273438 74.445312 76 73.570312 76.128906 73.453125 C 76.140625 73.425781 75.816406 73.375 75.398438 73.335938 C 73.902344 73.203125 72.769531 72.410156 72.144531 71.054688 C 71.871094 70.441406 71.832031 70.21875 71.882812 69.28125 C 71.976562 67.714844 72.691406 66.464844 74.019531 65.539062 C 74.867188 64.949219 75.425781 64.808594 77.875 64.496094 L 80.125 64.222656 L 81.140625 63.230469 C 81.6875 62.683594 82.144531 62.199219 82.144531 62.148438 C 82.144531 61.964844 79.175781 60.6875 77.367188 60.085938 C 72.976562 58.613281 67.574219 57.621094 61.765625 57.207031 C 60.761719 57.140625 59.65625 57.074219 59.292969 57.074219 L 58.640625 57.074219 Z M 59.605469 57.558594 " fill-opacity="1" fill-rule="nonzero"/><path fill="#000000" d="M 55.253906 58.863281 C 54.433594 58.980469 53.199219 59.460938 52.636719 59.890625 C 51.753906 60.570312 51.324219 61.089844 50.789062 62.148438 C 50.320312 63.097656 50.308594 63.164062 50.308594 64.558594 C 50.308594 65.914062 50.332031 66.058594 50.722656 66.878906 C 51.84375 69.265625 54.316406 70.648438 56.765625 70.257812 C 58.667969 69.945312 60.386719 68.640625 61.21875 66.894531 C 61.609375 66.058594 61.636719 65.914062 61.636719 64.574219 C 61.636719 63.230469 61.609375 63.085938 61.21875 62.265625 C 60.542969 60.816406 59.277344 59.65625 57.886719 59.175781 C 57.144531 58.914062 55.894531 58.769531 55.253906 58.863281 Z M 55.253906 58.863281 " fill-opacity="1" fill-rule="nonzero"/><g clip-path="url(#ec28804ca3)"><path fill="#000000" d="M 19.445312 60.648438 C 18.015625 61.105469 17.101562 62.054688 16.464844 63.75 C 15.800781 65.511719 15.671875 66.789062 15.671875 71.679688 C 15.671875 76.414062 15.773438 77.792969 16.269531 79.292969 C 16.84375 81.042969 18.132812 82.265625 19.5625 82.4375 C 19.929688 82.476562 22.402344 82.503906 25.046875 82.476562 L 29.863281 82.4375 L 29.835938 81.71875 C 29.796875 80.976562 29.003906 71.496094 28.976562 71.472656 C 28.964844 71.457031 27.664062 70.804688 26.085938 70.011719 C 24.511719 69.226562 23.117188 68.457031 22.988281 68.316406 C 22.609375 67.898438 22.664062 67.128906 23.09375 66.761719 C 23.273438 66.59375 23.5625 66.464844 23.703125 66.464844 C 23.859375 66.464844 25.292969 67.140625 26.90625 67.976562 L 29.835938 69.488281 L 31.648438 69.671875 C 35.214844 70.011719 36.726562 70.035156 37.195312 69.800781 C 38.238281 69.265625 38.261719 67.871094 37.246094 66.710938 C 36.621094 66.007812 36.113281 65.851562 33.378906 65.617188 C 32.023438 65.484375 30.800781 65.34375 30.683594 65.277344 C 30.28125 65.066406 28.445312 63.570312 27.625 62.785156 C 26.671875 61.886719 25.683594 61.378906 24.851562 61.378906 C 23.730469 61.378906 22.089844 61.105469 21.242188 60.792969 C 20.28125 60.425781 20.175781 60.414062 19.445312 60.648438 Z M 19.445312 60.648438 " fill-opacity="1" fill-rule="nonzero"/></g><g clip-path="url(#ce3ee4cf0c)"><path fill="#000000" d="M 90.242188 60.871094 C 89.488281 61.144531 88.773438 61.285156 87.835938 61.363281 C 85.894531 61.507812 85.28125 61.859375 83.445312 63.90625 C 81.15625 66.476562 81.648438 66.203125 78.539062 66.621094 C 75.542969 67.023438 75.203125 67.15625 74.476562 68.171875 C 73.707031 69.214844 73.890625 70.414062 74.878906 70.960938 C 75.347656 71.210938 75.347656 71.210938 78.640625 70.859375 C 82.445312 70.441406 81.765625 70.703125 85.476562 68.222656 C 87.625 66.777344 87.992188 66.582031 88.328125 66.644531 C 88.539062 66.699219 88.824219 66.839844 88.953125 66.972656 C 89.226562 67.246094 89.292969 68.066406 89.046875 68.355469 C 88.96875 68.445312 87.535156 69.449219 85.867188 70.570312 L 82.835938 72.617188 L 82.742188 73.480469 C 82.351562 77.714844 82 82.164062 82.066406 82.320312 C 82.132812 82.476562 82.914062 82.503906 87.117188 82.503906 C 89.867188 82.503906 92.328125 82.464844 92.601562 82.425781 C 93.34375 82.292969 94.371094 81.601562 94.855469 80.898438 C 95.871094 79.410156 96.167969 77.808594 96.285156 73.242188 C 96.46875 66.542969 95.882812 63.308594 94.230469 61.640625 C 93.082031 60.503906 91.921875 60.28125 90.242188 60.871094 Z M 90.242188 60.871094 " fill-opacity="1" fill-rule="nonzero"/></g><g clip-path="url(#444c667269)"><path fill="#000000" d="M 49.589844 72.722656 C 47.808594 73.023438 46.621094 74.117188 46.074219 75.980469 C 45.917969 76.492188 45.632812 78.523438 45.359375 81.066406 C 44.761719 86.726562 44.695312 87.613281 44.902344 88.097656 C 45.242188 88.929688 44.644531 88.890625 56.023438 88.890625 L 66.375 88.890625 L 66.726562 88.589844 C 66.988281 88.355469 67.09375 88.136719 67.132812 87.640625 C 67.234375 86.492188 66.179688 77.039062 65.804688 75.785156 C 65.335938 74.195312 64.03125 73.007812 62.429688 72.734375 C 61.492188 72.566406 50.542969 72.566406 49.589844 72.722656 Z M 49.589844 72.722656 " fill-opacity="1" fill-rule="nonzero"/></g><path fill="#000000" d="M 31.492188 74.769531 C 31.503906 75.382812 32.117188 82.125 32.167969 82.175781 C 32.285156 82.292969 35.542969 83.167969 37.207031 83.53125 C 41.0625 84.378906 42.820312 84.613281 42.820312 84.289062 C 42.832031 84.210938 43.003906 82.632812 43.199219 80.808594 C 43.40625 78.980469 43.550781 77.441406 43.511719 77.378906 C 43.484375 77.324219 43.316406 77.285156 43.144531 77.285156 C 42.625 77.285156 38.316406 76.398438 36.503906 75.917969 C 35.582031 75.667969 34.082031 75.238281 33.195312 74.9375 C 32.3125 74.652344 31.570312 74.417969 31.542969 74.417969 C 31.515625 74.417969 31.492188 74.574219 31.492188 74.769531 Z M 31.492188 74.769531 " fill-opacity="1" fill-rule="nonzero"/><path fill="#000000" d="M 78.628906 74.964844 C 76.636719 75.65625 73.1875 76.515625 70.621094 76.972656 C 69.476562 77.167969 68.5 77.363281 68.445312 77.402344 C 68.367188 77.46875 69.085938 84.445312 69.175781 84.550781 C 69.226562 84.613281 73.746094 83.792969 75.046875 83.480469 C 76.375 83.167969 79.683594 82.253906 79.773438 82.175781 C 79.8125 82.148438 80.453125 75.03125 80.453125 74.640625 C 80.453125 74.351562 80.386719 74.367188 78.628906 74.964844 Z M 78.628906 74.964844 " fill-opacity="1" fill-rule="nonzero"/></svg>