<svg xmlns="http://www.w3.org/2000/svg" xmlns:xlink="http://www.w3.org/1999/xlink" width="150" zoomAndPan="magnify" viewBox="0 0 112.5 112.499997" height="150" preserveAspectRatio="xMidYMid meet" version="1.0"><defs><clipPath id="42dbf5f754"><path d="M 4.457031 4.457031 L 107.546875 4.457031 L 107.546875 107.546875 L 4.457031 107.546875 Z M 4.457031 4.457031 " clip-rule="nonzero"/></clipPath><clipPath id="eb113108c6"><path d="M 56 4.457031 C 27.535156 4.457031 4.457031 27.535156 4.457031 56 C 4.457031 84.46875 27.535156 107.546875 56 107.546875 C 84.46875 107.546875 107.546875 84.46875 107.546875 56 C 107.546875 27.535156 84.46875 4.457031 56 4.457031 Z M 56 4.457031 " clip-rule="nonzero"/></clipPath><clipPath id="d0d156b0fe"><path d="M 0.457031 0.457031 L 103.546875 0.457031 L 103.546875 103.546875 L 0.457031 103.546875 Z M 0.457031 0.457031 " clip-rule="nonzero"/></clipPath><clipPath id="6b324ab895"><path d="M 52 0.457031 C 23.535156 0.457031 0.457031 23.535156 0.457031 52 C 0.457031 80.46875 23.535156 103.546875 52 103.546875 C 80.46875 103.546875 103.546875 80.46875 103.546875 52 C 103.546875 23.535156 80.46875 0.457031 52 0.457031 Z M 52 0.457031 " clip-rule="nonzero"/></clipPath><clipPath id="b8e15458ad"><rect x="0" width="104" y="0" height="104"/></clipPath><clipPath id="79ee79af61"><path d="M 14.355469 25.390625 L 97.984375 25.390625 L 97.984375 86.621094 L 14.355469 86.621094 Z M 14.355469 25.390625 " clip-rule="nonzero"/></clipPath></defs><g clip-path="url(#42dbf5f754)"><g clip-path="url(#eb113108c6)"><g transform="matrix(1, 0, 0, 1, 4, 4)"><g clip-path="url(#b8e15458ad)"><g clip-path="url(#d0d156b0fe)"><g clip-path="url(#6b324ab895)"><path fill="#001137" d="M 0.457031 0.457031 L 103.546875 0.457031 L 103.546875 103.546875 L 0.457031 103.546875 Z M 0.457031 0.457031 " fill-opacity="1" fill-rule="nonzero"/></g></g></g></g></g></g><g clip-path="url(#79ee79af61)"><path fill="#ff9860" d="M 84.363281 48.847656 C 87.75 48.847656 90.503906 46.09375 90.503906 42.707031 C 90.503906 39.316406 87.75 36.558594 84.363281 36.558594 C 80.976562 36.558594 78.21875 39.316406 78.21875 42.707031 C 78.21875 46.09375 80.976562 48.847656 84.363281 48.847656 Z M 84.363281 38.914062 C 86.449219 38.914062 88.144531 40.617188 88.144531 42.707031 C 88.144531 44.792969 86.449219 46.492188 84.363281 46.492188 C 82.277344 46.492188 80.578125 44.792969 80.578125 42.707031 C 80.578125 40.617188 82.277344 38.914062 84.363281 38.914062 Z M 44.808594 48.847656 C 48.199219 48.847656 50.957031 46.09375 50.957031 42.707031 C 50.957031 39.316406 48.199219 36.558594 44.808594 36.558594 C 41.421875 36.558594 38.664062 39.316406 38.664062 42.707031 C 38.664062 46.09375 41.421875 48.847656 44.808594 48.847656 Z M 44.808594 38.914062 C 46.898438 38.914062 48.597656 40.617188 48.597656 42.707031 C 48.597656 44.792969 46.898438 46.492188 44.808594 46.492188 C 42.722656 46.492188 41.023438 44.792969 41.023438 42.707031 C 41.023438 40.617188 42.722656 38.914062 44.808594 38.914062 Z M 64.585938 53.179688 C 67.972656 53.179688 70.730469 50.421875 70.730469 47.035156 C 70.730469 43.648438 67.972656 40.890625 64.585938 40.890625 C 61.199219 40.890625 58.441406 43.648438 58.441406 47.035156 C 58.441406 50.421875 61.199219 53.179688 64.585938 53.179688 Z M 64.585938 43.25 C 66.671875 43.25 68.371094 44.949219 68.371094 47.035156 C 68.371094 49.125 66.671875 50.820312 64.585938 50.820312 C 62.5 50.820312 60.800781 49.125 60.800781 47.035156 C 60.800781 44.949219 62.5 43.25 64.585938 43.25 Z M 22.496094 86.605469 C 22.855469 86.605469 23.226562 86.5625 23.589844 86.464844 L 29 85.011719 C 30.09375 84.71875 31.011719 84.011719 31.582031 83.027344 C 32.097656 82.132812 32.265625 81.109375 32.074219 80.109375 L 32.667969 80.023438 C 35.898438 79.53125 36.574219 79.65625 39.410156 80.191406 L 58.164062 83.65625 C 61.019531 84.1875 62.828125 84.507812 64.273438 84.507812 C 66.636719 84.507812 68.023438 83.644531 71.421875 81.410156 C 72.066406 80.988281 72.789062 80.511719 73.617188 79.980469 L 92.378906 67.90625 C 92.949219 67.546875 93.335938 66.957031 93.441406 66.296875 C 93.550781 65.628906 93.363281 64.949219 92.933594 64.421875 C 91.925781 63.195312 90.488281 62.210938 88.785156 61.746094 C 90.863281 59.265625 92.574219 56.867188 93.917969 54.554688 C 94.007812 54.445312 94.078125 54.328125 94.125 54.203125 C 99.136719 45.359375 98.738281 37.707031 92.976562 30.988281 C 87.910156 25.085938 79.164062 23.6875 71.695312 27.589844 C 68.917969 29.042969 66.960938 31.042969 64.890625 33.160156 L 64.585938 33.476562 C 64.484375 33.371094 64.382812 33.265625 64.277344 33.160156 C 62.207031 31.042969 60.25 29.042969 57.472656 27.585938 C 50.007812 23.6875 41.257812 25.085938 36.195312 30.988281 C 30.398438 37.746094 30.015625 45.414062 35.074219 54.28125 C 35.109375 54.351562 35.148438 54.421875 35.195312 54.488281 C 36.300781 56.390625 37.648438 58.351562 39.253906 60.371094 C 35.222656 61.429688 31.324219 63.296875 28.039062 65.09375 C 27.691406 64.203125 27.054688 63.460938 26.207031 62.972656 C 25.222656 62.402344 24.078125 62.253906 22.984375 62.546875 L 17.574219 63.996094 C 16.480469 64.289062 15.5625 64.992188 14.992188 65.976562 C 14.421875 66.960938 14.269531 68.109375 14.5625 69.207031 L 18.378906 83.453125 C 18.890625 85.351562 20.613281 86.605469 22.496094 86.605469 Z M 91.105469 65.921875 L 72.339844 77.996094 C 71.503906 78.535156 70.777344 79.011719 70.128906 79.4375 C 66.9375 81.535156 63.089844 82.171875 58.585938 81.339844 L 39.847656 77.875 C 36.921875 77.324219 35.941406 77.136719 32.316406 77.691406 L 31.476562 77.816406 L 28.695312 67.425781 C 38.097656 62.238281 45.246094 60.699219 50.523438 62.726562 C 52.152344 63.351562 53.003906 63.871094 53.824219 64.375 C 55.226562 65.230469 56.4375 65.972656 60.375 66.699219 L 64.914062 67.523438 C 65.765625 67.570312 66.367188 67.824219 66.757812 68.292969 C 67.199219 68.828125 67.402344 69.734375 67.324219 70.753906 C 67.1875 71.410156 66.792969 71.980469 66.203125 72.371094 C 65.601562 72.769531 64.859375 72.929688 64.160156 72.800781 L 50.394531 70.269531 C 49.753906 70.15625 49.140625 70.574219 49.023438 71.214844 C 48.90625 71.855469 49.328125 72.472656 49.96875 72.589844 L 63.730469 75.117188 C 64.039062 75.175781 64.351562 75.203125 64.660156 75.203125 C 65.664062 75.203125 66.648438 74.90625 67.507812 74.335938 C 68.355469 73.773438 68.992188 73 69.363281 72.105469 L 82.796875 64.925781 C 86.304688 62.894531 89.5 63.960938 91.105469 65.921875 Z M 56.777344 58.945312 C 56.785156 58.9375 56.792969 58.929688 56.800781 58.921875 C 58.234375 57.53125 60.183594 56.691406 62.28125 56.691406 L 66.890625 56.691406 C 69.015625 56.691406 70.945312 57.539062 72.363281 58.914062 C 72.394531 58.949219 72.429688 58.976562 72.464844 59.007812 C 73.886719 60.433594 74.765625 62.402344 74.765625 64.566406 L 74.765625 66.539062 L 69.628906 69.28125 C 69.503906 68.445312 69.203125 67.554688 68.570312 66.789062 C 67.753906 65.804688 66.574219 65.257812 65.195312 65.183594 L 60.800781 64.378906 C 57.292969 63.730469 56.304688 63.128906 55.054688 62.363281 C 54.960938 62.308594 54.867188 62.25 54.773438 62.191406 C 55.171875 60.941406 55.871094 59.832031 56.777344 58.945312 Z M 81.652344 62.863281 L 77.125 65.277344 L 77.125 64.566406 C 77.125 61.980469 76.15625 59.617188 74.566406 57.8125 C 75.617188 54.617188 78.667969 52.355469 82.058594 52.355469 L 86.667969 52.355469 C 88.4375 52.355469 90.125 52.949219 91.507812 54.035156 C 90.0625 56.398438 88.195312 58.875 85.910156 61.476562 C 84.558594 61.582031 83.117188 62.015625 81.652344 62.863281 Z M 37.984375 32.523438 C 42.332031 27.457031 49.898438 26.289062 56.378906 29.675781 C 58.828125 30.957031 60.65625 32.828125 62.59375 34.8125 C 62.972656 35.203125 63.359375 35.59375 63.75 35.988281 C 64.191406 36.429688 64.976562 36.429688 65.417969 35.988281 C 65.8125 35.59375 66.195312 35.203125 66.578125 34.8125 C 68.515625 32.828125 70.34375 30.957031 72.789062 29.679688 C 79.269531 26.285156 86.839844 27.457031 91.1875 32.523438 C 96.042969 38.183594 96.566406 44.503906 92.683594 51.964844 C 90.941406 50.6875 88.851562 50 86.667969 50 L 82.058594 50 C 77.921875 50 74.285156 52.449219 72.679688 56.136719 C 71.03125 55 69.039062 54.335938 66.890625 54.335938 L 62.28125 54.335938 C 60.15625 54.335938 58.15625 54.996094 56.496094 56.136719 C 54.890625 52.449219 51.25 50 47.113281 50 L 42.507812 50 C 40.316406 50 38.222656 50.691406 36.480469 51.96875 C 32.585938 44.511719 33.109375 38.207031 37.984375 32.523438 Z M 37.65625 54.042969 C 39.039062 52.949219 40.730469 52.355469 42.507812 52.355469 L 47.113281 52.355469 C 50.503906 52.355469 53.558594 54.617188 54.605469 57.808594 C 53.773438 58.753906 53.109375 59.855469 52.664062 61.066406 C 52.285156 60.894531 51.855469 60.714844 51.371094 60.527344 C 48.339844 59.359375 45.078125 59.269531 41.839844 59.8125 C 40.1875 57.8125 38.789062 55.890625 37.65625 54.042969 Z M 17.035156 67.15625 C 17.289062 66.71875 17.695312 66.40625 18.175781 66.277344 C 18.179688 66.277344 18.179688 66.277344 18.179688 66.273438 L 23.59375 64.824219 C 23.753906 64.78125 23.921875 64.757812 24.082031 64.757812 C 24.410156 64.757812 24.734375 64.847656 25.03125 65.015625 C 25.472656 65.269531 25.785156 65.679688 25.914062 66.160156 L 29.730469 80.414062 C 29.859375 80.898438 29.792969 81.40625 29.539062 81.847656 C 29.28125 82.289062 28.875 82.605469 28.390625 82.734375 L 22.980469 84.183594 C 21.96875 84.449219 20.925781 83.847656 20.65625 82.84375 L 16.84375 68.597656 C 16.710938 68.109375 16.777344 67.597656 17.035156 67.15625 Z M 23.300781 80.28125 C 23.136719 79.652344 23.515625 79.007812 24.144531 78.839844 L 24.382812 78.777344 C 25.019531 78.613281 25.65625 78.992188 25.824219 79.621094 C 25.988281 80.25 25.609375 80.894531 24.980469 81.0625 L 24.742188 81.125 C 24.640625 81.148438 24.542969 81.160156 24.441406 81.160156 C 23.917969 81.160156 23.441406 80.8125 23.300781 80.28125 Z M 23.300781 80.28125 " fill-opacity="1" fill-rule="nonzero"/></g></svg>