<svg xmlns="http://www.w3.org/2000/svg" xmlns:xlink="http://www.w3.org/1999/xlink" width="150" zoomAndPan="magnify" viewBox="0 0 112.5 112.499997" height="150" preserveAspectRatio="xMidYMid meet" version="1.0"><defs><clipPath id="aebe2366be"><path d="M 4.457031 4.457031 L 107.546875 4.457031 L 107.546875 107.546875 L 4.457031 107.546875 Z M 4.457031 4.457031 " clip-rule="nonzero"/></clipPath><clipPath id="3b48b37d22"><path d="M 56 4.457031 C 27.535156 4.457031 4.457031 27.535156 4.457031 56 C 4.457031 84.46875 27.535156 107.546875 56 107.546875 C 84.46875 107.546875 107.546875 84.46875 107.546875 56 C 107.546875 27.535156 84.46875 4.457031 56 4.457031 Z M 56 4.457031 " clip-rule="nonzero"/></clipPath><clipPath id="f9f358e003"><path d="M 0.457031 0.457031 L 103.546875 0.457031 L 103.546875 103.546875 L 0.457031 103.546875 Z M 0.457031 0.457031 " clip-rule="nonzero"/></clipPath><clipPath id="9052a9ea0f"><path d="M 52 0.457031 C 23.535156 0.457031 0.457031 23.535156 0.457031 52 C 0.457031 80.46875 23.535156 103.546875 52 103.546875 C 80.46875 103.546875 103.546875 80.46875 103.546875 52 C 103.546875 23.535156 80.46875 0.457031 52 0.457031 Z M 52 0.457031 " clip-rule="nonzero"/></clipPath><clipPath id="f4c839aec1"><rect x="0" width="104" y="0" height="104"/></clipPath><clipPath id="adfc49dfbf"><path d="M 29.753906 21.007812 L 63 21.007812 L 63 91.195312 L 29.753906 91.195312 Z M 29.753906 21.007812 " clip-rule="nonzero"/></clipPath><clipPath id="6c2dda2870"><path d="M 60 49 L 82.023438 49 L 82.023438 72 L 60 72 Z M 60 49 " clip-rule="nonzero"/></clipPath></defs><g clip-path="url(#aebe2366be)"><g clip-path="url(#3b48b37d22)"><g transform="matrix(1, 0, 0, 1, 4, 4)"><g clip-path="url(#f4c839aec1)"><g clip-path="url(#f9f358e003)"><g clip-path="url(#9052a9ea0f)"><path fill="#dce3f8" d="M 0.457031 0.457031 L 103.546875 0.457031 L 103.546875 103.546875 L 0.457031 103.546875 Z M 0.457031 0.457031 " fill-opacity="1" fill-rule="nonzero"/></g></g></g></g></g></g><g clip-path="url(#adfc49dfbf)"><path fill="#000000" d="M 59.902344 85.167969 C 59.898438 85.507812 59.835938 85.835938 59.710938 86.152344 C 59.582031 86.464844 59.40625 86.746094 59.171875 86.996094 C 58.941406 87.242188 58.675781 87.4375 58.367188 87.582031 C 58.0625 87.726562 57.742188 87.8125 57.40625 87.832031 L 38.144531 89.296875 L 37.292969 89.273438 C 36.992188 89.203125 36.710938 89.085938 36.449219 88.921875 C 36.1875 88.757812 35.960938 88.550781 35.769531 88.308594 C 35.574219 88.066406 35.429688 87.796875 35.328125 87.503906 C 35.226562 87.210938 35.175781 86.90625 35.175781 86.59375 L 35.664062 25.679688 C 35.671875 25.191406 35.796875 24.738281 36.046875 24.316406 C 36.296875 23.898438 36.632812 23.570312 37.054688 23.332031 L 37.304688 23.597656 L 37.828125 23.097656 L 38.324219 23.003906 C 38.410156 23.007812 38.5 23.015625 38.585938 23.027344 L 41.445312 23.269531 L 41.429688 24.582031 C 41.433594 24.863281 41.484375 25.132812 41.582031 25.394531 C 41.683594 25.65625 41.828125 25.886719 42.015625 26.09375 C 42.207031 26.300781 42.425781 26.46875 42.671875 26.59375 C 42.921875 26.714844 43.1875 26.792969 43.460938 26.816406 L 53.269531 27.636719 C 53.324219 27.648438 53.382812 27.652344 53.445312 27.648438 C 53.734375 27.648438 54.015625 27.59375 54.285156 27.480469 C 54.558594 27.371094 54.796875 27.210938 55.003906 27.003906 C 55.210938 26.796875 55.371094 26.558594 55.488281 26.289062 C 55.601562 26.015625 55.660156 25.734375 55.664062 25.441406 L 55.675781 24.457031 L 57.90625 24.644531 L 58.246094 24.695312 C 58.308594 24.703125 58.371094 24.714844 58.433594 24.734375 C 58.453125 24.734375 58.46875 24.738281 58.484375 24.746094 C 58.625 24.792969 58.765625 24.855469 58.898438 24.921875 L 59.085938 25.125 L 59.363281 25.226562 C 59.394531 25.246094 59.417969 25.269531 59.4375 25.300781 L 59.539062 25.503906 L 59.664062 25.566406 L 60.226562 26.488281 C 60.25 26.546875 60.265625 26.605469 60.277344 26.664062 C 60.347656 26.894531 60.382812 27.128906 60.378906 27.371094 L 60.339844 32.878906 L 62.21875 32.890625 L 62.257812 27.382812 C 62.265625 26.949219 62.207031 26.527344 62.082031 26.109375 C 62.054688 26.007812 62.023438 25.90625 61.980469 25.804688 C 61.957031 25.71875 61.917969 25.628906 61.882812 25.527344 C 61.851562 25.429688 61.8125 25.335938 61.757812 25.25 C 61.746094 25.238281 61.746094 25.210938 61.730469 25.199219 C 61.707031 25.160156 61.6875 25.117188 61.667969 25.074219 C 61.632812 25.023438 61.617188 24.984375 61.605469 24.984375 C 61.59375 24.957031 61.578125 24.933594 61.554688 24.910156 C 61.503906 24.796875 61.4375 24.691406 61.355469 24.59375 L 61.316406 24.554688 L 61.253906 24.46875 C 61.230469 24.425781 61.199219 24.390625 61.167969 24.355469 L 61.054688 24.242188 C 61.054688 24.226562 61.042969 24.214844 61.03125 24.203125 L 60.628906 23.699219 L 60.414062 23.648438 C 60.347656 23.582031 60.273438 23.53125 60.1875 23.496094 L 59.886719 23.230469 L 59.714844 23.191406 C 59.484375 23.074219 59.246094 22.988281 59 22.925781 C 58.980469 22.917969 58.957031 22.914062 58.933594 22.914062 C 58.882812 22.882812 58.824219 22.859375 58.761719 22.851562 L 58.410156 22.789062 L 58.394531 22.789062 C 58.34375 22.773438 58.289062 22.769531 58.234375 22.777344 L 58.082031 22.761719 L 38.75 21.121094 L 38.558594 21.121094 C 38.449219 21.109375 38.335938 21.105469 38.222656 21.109375 C 38.144531 21.109375 38.070312 21.113281 37.996094 21.121094 L 37.570312 21.132812 L 37.445312 21.007812 L 37.230469 21.132812 L 35.539062 21.171875 C 35.449219 21.171875 35.363281 21.175781 35.273438 21.183594 L 35.199219 21.183594 C 34.867188 21.214844 34.539062 21.273438 34.214844 21.363281 C 33.894531 21.457031 33.582031 21.574219 33.28125 21.726562 C 32.980469 21.875 32.695312 22.050781 32.425781 22.25 C 32.160156 22.453125 31.914062 22.679688 31.6875 22.925781 C 31.457031 23.175781 31.257812 23.445312 31.078125 23.730469 C 30.902344 24.015625 30.753906 24.316406 30.632812 24.628906 C 30.507812 24.945312 30.417969 25.265625 30.355469 25.597656 C 30.292969 25.929688 30.261719 26.265625 30.257812 26.601562 L 29.769531 85.574219 C 29.765625 85.925781 29.796875 86.273438 29.859375 86.621094 C 29.921875 86.96875 30.015625 87.304688 30.144531 87.632812 C 30.273438 87.960938 30.429688 88.273438 30.621094 88.570312 C 30.808594 88.871094 31.023438 89.144531 31.261719 89.402344 C 31.503906 89.65625 31.769531 89.886719 32.054688 90.089844 C 32.339844 90.292969 32.640625 90.46875 32.960938 90.613281 C 33.28125 90.757812 33.609375 90.871094 33.949219 90.949219 C 34.292969 91.03125 34.636719 91.078125 34.988281 91.089844 L 34.988281 91.101562 L 37.339844 91.179688 L 37.339844 91.152344 L 37.34375 91.152344 L 38.195312 91.191406 L 57.542969 89.726562 C 58.117188 89.6875 58.664062 89.542969 59.183594 89.296875 C 59.703125 89.050781 60.15625 88.714844 60.550781 88.292969 C 60.945312 87.871094 61.246094 87.390625 61.460938 86.855469 C 61.671875 86.316406 61.78125 85.757812 61.78125 85.179688 L 61.84375 76.972656 L 59.964844 76.949219 Z M 59.902344 85.167969 " fill-opacity="1" fill-rule="nonzero"/></g><path fill="#000000" d="M 61.152344 39.515625 L 61.152344 47.898438 L 63.035156 47.898438 L 63.035156 41.410156 L 65.457031 41.410156 C 65.554688 42.03125 65.746094 42.621094 66.03125 43.179688 C 66.316406 43.738281 66.683594 44.238281 67.125 44.679688 C 67.570312 45.121094 68.070312 45.480469 68.628906 45.761719 C 69.1875 46.042969 69.777344 46.226562 70.394531 46.320312 C 70.699219 46.367188 71.003906 46.390625 71.3125 46.390625 C 71.691406 46.390625 72.0625 46.351562 72.433594 46.28125 C 72.804688 46.207031 73.167969 46.101562 73.515625 45.957031 C 73.867188 45.816406 74.203125 45.640625 74.519531 45.4375 C 74.835938 45.230469 75.132812 44.996094 75.40625 44.734375 C 75.679688 44.472656 75.925781 44.183594 76.144531 43.875 C 76.363281 43.566406 76.550781 43.238281 76.707031 42.890625 C 76.867188 42.542969 76.988281 42.1875 77.078125 41.816406 C 77.167969 41.449219 77.222656 41.074219 77.242188 40.691406 C 77.257812 40.3125 77.242188 39.933594 77.1875 39.558594 C 77.136719 39.179688 77.046875 38.8125 76.925781 38.453125 C 76.804688 38.09375 76.648438 37.746094 76.460938 37.417969 C 76.273438 37.085938 76.054688 36.777344 75.808594 36.488281 C 75.5625 36.203125 75.289062 35.9375 74.996094 35.703125 C 74.699219 35.464844 74.382812 35.261719 74.046875 35.085938 C 73.714844 34.910156 73.363281 34.765625 73.003906 34.65625 C 72.640625 34.546875 72.273438 34.472656 71.894531 34.4375 C 71.519531 34.398438 71.144531 34.394531 70.769531 34.429688 C 70.390625 34.460938 70.023438 34.53125 69.660156 34.636719 C 69.296875 34.742188 68.945312 34.878906 68.609375 35.050781 C 68.273438 35.222656 67.953125 35.425781 67.65625 35.660156 C 67.355469 35.890625 67.082031 36.152344 66.832031 36.4375 C 66.582031 36.722656 66.363281 37.027344 66.167969 37.355469 C 65.976562 37.683594 65.820312 38.027344 65.691406 38.386719 C 65.566406 38.742188 65.472656 39.109375 65.414062 39.488281 L 65.414062 39.515625 Z M 67.273438 39.773438 C 67.320312 39.464844 67.402344 39.164062 67.519531 38.871094 C 67.636719 38.582031 67.78125 38.304688 67.960938 38.046875 C 68.140625 37.789062 68.347656 37.558594 68.578125 37.347656 C 68.8125 37.136719 69.0625 36.957031 69.335938 36.804688 C 69.609375 36.65625 69.898438 36.535156 70.199219 36.453125 C 70.5 36.367188 70.804688 36.316406 71.117188 36.304688 C 71.429688 36.289062 71.738281 36.3125 72.042969 36.371094 C 72.351562 36.429688 72.648438 36.519531 72.933594 36.648438 C 73.21875 36.773438 73.484375 36.929688 73.734375 37.121094 C 73.984375 37.308594 74.210938 37.523438 74.410156 37.761719 C 74.613281 38.003906 74.78125 38.265625 74.925781 38.542969 C 75.066406 38.824219 75.171875 39.117188 75.246094 39.421875 C 75.320312 39.726562 75.359375 40.039062 75.363281 40.351562 C 75.367188 40.667969 75.335938 40.976562 75.265625 41.285156 C 75.199219 41.589844 75.097656 41.886719 74.964844 42.167969 C 74.828125 42.453125 74.664062 42.714844 74.46875 42.960938 C 74.273438 43.207031 74.054688 43.425781 73.808594 43.621094 C 73.5625 43.8125 73.296875 43.976562 73.015625 44.109375 C 72.734375 44.242188 72.4375 44.34375 72.132812 44.40625 C 71.828125 44.472656 71.519531 44.5 71.207031 44.492188 C 70.894531 44.488281 70.589844 44.445312 70.285156 44.367188 C 69.984375 44.289062 69.695312 44.175781 69.417969 44.03125 C 69.140625 43.886719 68.882812 43.710938 68.648438 43.507812 C 68.410156 43.304688 68.199219 43.074219 68.015625 42.820312 C 67.351562 41.910156 67.105469 40.894531 67.273438 39.773438 Z M 67.273438 39.773438 " fill-opacity="1" fill-rule="nonzero"/><path fill="#000000" d="M 57.933594 51.976562 L 57.933594 43.636719 C 58.09375 43.566406 58.242188 43.480469 58.378906 43.375 C 58.519531 43.269531 58.644531 43.148438 58.753906 43.015625 C 58.867188 42.882812 58.960938 42.738281 59.039062 42.582031 C 59.117188 42.425781 59.179688 42.265625 59.222656 42.09375 C 59.261719 41.925781 59.285156 41.753906 59.289062 41.578125 C 59.292969 41.402344 59.277344 41.230469 59.242188 41.0625 C 59.203125 40.890625 59.148438 40.726562 59.078125 40.566406 C 59.003906 40.410156 58.914062 40.261719 58.808594 40.121094 C 58.703125 39.984375 58.582031 39.859375 58.445312 39.75 C 58.3125 39.640625 58.167969 39.546875 58.011719 39.46875 C 57.855469 39.390625 57.695312 39.332031 57.527344 39.292969 C 57.355469 39.253906 57.1875 39.234375 57.011719 39.234375 C 56.839844 39.230469 56.667969 39.25 56.5 39.289062 C 56.328125 39.328125 56.167969 39.386719 56.011719 39.460938 C 55.855469 39.535156 55.710938 39.628906 55.574219 39.738281 C 55.4375 39.847656 55.316406 39.96875 55.210938 40.109375 C 55.101562 40.246094 55.011719 40.390625 54.9375 40.550781 C 54.863281 40.707031 54.808594 40.871094 54.769531 41.042969 C 54.734375 41.210938 54.714844 41.386719 54.714844 41.558594 C 54.71875 41.734375 54.738281 41.90625 54.78125 42.074219 C 54.820312 42.246094 54.878906 42.410156 54.957031 42.566406 C 55.035156 42.722656 55.128906 42.867188 55.238281 43 C 55.351562 43.136719 55.472656 43.257812 55.609375 43.363281 C 55.75 43.46875 55.894531 43.558594 56.054688 43.628906 L 56.054688 51.976562 Z M 57.933594 51.976562 " fill-opacity="1" fill-rule="nonzero"/><path fill="#000000" d="M 58.105469 60.304688 L 47.214844 60.304688 L 47.214844 51.820312 C 47.375 51.75 47.523438 51.660156 47.660156 51.554688 C 47.796875 51.449219 47.921875 51.332031 48.035156 51.199219 C 48.144531 51.0625 48.242188 50.917969 48.320312 50.761719 C 48.398438 50.609375 48.457031 50.445312 48.5 50.277344 C 48.542969 50.105469 48.566406 49.933594 48.570312 49.761719 C 48.570312 49.585938 48.554688 49.414062 48.519531 49.242188 C 48.484375 49.070312 48.429688 48.90625 48.355469 48.75 C 48.285156 48.589844 48.195312 48.441406 48.085938 48.304688 C 47.980469 48.167969 47.859375 48.042969 47.726562 47.933594 C 47.59375 47.820312 47.445312 47.726562 47.292969 47.652344 C 47.136719 47.574219 46.972656 47.515625 46.804688 47.476562 C 46.636719 47.4375 46.464844 47.414062 46.292969 47.414062 C 46.117188 47.414062 45.949219 47.433594 45.777344 47.472656 C 45.609375 47.511719 45.445312 47.566406 45.289062 47.644531 C 45.132812 47.71875 44.988281 47.8125 44.851562 47.921875 C 44.71875 48.03125 44.597656 48.152344 44.488281 48.289062 C 44.382812 48.425781 44.289062 48.574219 44.214844 48.730469 C 44.140625 48.890625 44.085938 49.054688 44.050781 49.222656 C 44.011719 49.394531 43.996094 49.566406 43.996094 49.742188 C 44 49.917969 44.019531 50.089844 44.058594 50.257812 C 44.101562 50.429688 44.160156 50.589844 44.238281 50.746094 C 44.316406 50.902344 44.410156 51.046875 44.519531 51.183594 C 44.628906 51.316406 44.753906 51.4375 44.890625 51.542969 C 45.027344 51.652344 45.175781 51.742188 45.335938 51.8125 L 45.335938 62.199219 L 58.105469 62.199219 Z M 58.105469 60.304688 " fill-opacity="1" fill-rule="nonzero"/><path fill="#000000" d="M 61.03125 72.332031 L 61.03125 70.4375 L 53.851562 70.4375 L 51.746094 72.101562 C 51.40625 71.777344 51.035156 71.496094 50.632812 71.257812 C 50.230469 71.023438 49.804688 70.835938 49.355469 70.699219 C 48.910156 70.5625 48.453125 70.480469 47.988281 70.453125 C 47.519531 70.425781 47.058594 70.453125 46.597656 70.535156 C 46.136719 70.617188 45.691406 70.75 45.265625 70.9375 C 44.835938 71.125 44.433594 71.363281 44.0625 71.644531 C 43.6875 71.925781 43.351562 72.25 43.054688 72.613281 C 42.757812 72.972656 42.503906 73.367188 42.296875 73.789062 C 42.09375 74.210938 41.9375 74.652344 41.835938 75.109375 C 41.730469 75.566406 41.683594 76.03125 41.6875 76.503906 C 41.695312 76.972656 41.753906 77.4375 41.867188 77.894531 C 41.980469 78.347656 42.148438 78.785156 42.363281 79.203125 C 42.578125 79.621094 42.839844 80.007812 43.148438 80.359375 C 43.453125 80.714844 43.796875 81.03125 44.175781 81.304688 C 44.554688 81.578125 44.960938 81.804688 45.394531 81.980469 C 45.828125 82.15625 46.273438 82.28125 46.738281 82.351562 C 47.125 82.414062 47.511719 82.433594 47.902344 82.417969 C 48.292969 82.402344 48.675781 82.34375 49.058594 82.25 C 49.4375 82.160156 49.804688 82.027344 50.15625 81.863281 C 50.511719 81.695312 50.847656 81.496094 51.164062 81.265625 C 51.476562 81.03125 51.765625 80.769531 52.03125 80.480469 C 52.296875 80.1875 52.527344 79.875 52.730469 79.539062 C 52.933594 79.203125 53.101562 78.847656 53.234375 78.480469 C 53.367188 78.109375 53.464844 77.730469 53.523438 77.339844 C 53.722656 76.027344 53.503906 74.785156 52.871094 73.617188 L 54.5 72.332031 Z M 51.667969 77.050781 C 51.585938 77.574219 51.414062 78.058594 51.152344 78.511719 C 50.886719 78.964844 50.546875 79.351562 50.132812 79.675781 C 49.722656 79.996094 49.265625 80.230469 48.761719 80.375 C 48.261719 80.519531 47.75 80.566406 47.230469 80.511719 C 46.710938 80.460938 46.21875 80.3125 45.757812 80.070312 C 45.292969 79.824219 44.890625 79.503906 44.550781 79.105469 C 44.210938 78.707031 43.957031 78.257812 43.789062 77.761719 C 43.617188 77.265625 43.546875 76.753906 43.574219 76.226562 C 43.601562 75.703125 43.722656 75.199219 43.941406 74.722656 C 44.15625 74.246094 44.457031 73.824219 44.832031 73.460938 C 45.210938 73.101562 45.644531 72.820312 46.128906 72.625 C 46.613281 72.429688 47.117188 72.332031 47.636719 72.332031 C 47.847656 72.332031 48.054688 72.347656 48.261719 72.378906 C 48.523438 72.421875 48.78125 72.488281 49.035156 72.578125 C 49.285156 72.671875 49.523438 72.785156 49.753906 72.925781 C 49.980469 73.066406 50.195312 73.226562 50.390625 73.40625 C 50.589844 73.589844 50.765625 73.789062 50.925781 74.003906 C 51.082031 74.222656 51.21875 74.453125 51.332031 74.695312 C 51.445312 74.941406 51.53125 75.195312 51.597656 75.453125 C 51.660156 75.714844 51.699219 75.980469 51.710938 76.25 C 51.722656 76.519531 51.707031 76.785156 51.667969 77.050781 Z M 51.667969 77.050781 " fill-opacity="1" fill-rule="nonzero"/><path fill="#000000" d="M 50.019531 35.253906 C 49.875 35.058594 49.71875 34.871094 49.554688 34.691406 C 49.386719 34.511719 49.207031 34.34375 49.019531 34.1875 C 48.832031 34.03125 48.636719 33.886719 48.433594 33.753906 C 48.226562 33.621094 48.015625 33.5 47.792969 33.394531 C 47.574219 33.289062 47.347656 33.195312 47.117188 33.117188 C 46.886719 33.039062 46.652344 32.976562 46.414062 32.925781 C 46.175781 32.875 45.933594 32.84375 45.691406 32.824219 C 45.445312 32.804688 45.203125 32.800781 44.960938 32.808594 C 44.714844 32.820312 44.476562 32.847656 44.234375 32.886719 C 43.992188 32.925781 43.757812 32.984375 43.523438 33.050781 C 43.289062 33.121094 43.0625 33.207031 42.835938 33.304688 C 42.613281 33.402344 42.398438 33.515625 42.1875 33.640625 C 41.976562 33.765625 41.777344 33.902344 41.582031 34.050781 C 41.390625 34.203125 41.207031 34.363281 41.035156 34.535156 C 40.859375 34.707031 40.699219 34.890625 40.546875 35.085938 C 40.394531 35.277344 40.257812 35.476562 40.128906 35.6875 C 40.003906 35.898438 39.890625 36.113281 39.789062 36.339844 C 39.691406 36.5625 39.605469 36.792969 39.53125 37.027344 C 39.460938 37.261719 39.402344 37.5 39.359375 37.742188 C 39.316406 37.984375 39.289062 38.226562 39.273438 38.472656 C 39.261719 38.714844 39.265625 38.960938 39.28125 39.207031 C 39.296875 39.453125 39.328125 39.695312 39.375 39.9375 C 39.421875 40.175781 39.480469 40.414062 39.558594 40.648438 C 39.632812 40.882812 39.722656 41.109375 39.824219 41.332031 C 39.925781 41.554688 40.042969 41.769531 40.171875 41.976562 C 40.300781 42.1875 40.445312 42.386719 40.597656 42.574219 C 40.75 42.765625 40.914062 42.945312 41.089844 43.117188 C 41.265625 43.289062 41.453125 43.445312 41.648438 43.59375 C 41.84375 43.742188 42.046875 43.875 42.257812 43.996094 C 42.46875 44.121094 42.6875 44.230469 42.910156 44.324219 C 43.136719 44.417969 43.367188 44.5 43.601562 44.566406 C 43.835938 44.632812 44.074219 44.683594 44.3125 44.722656 C 44.613281 44.769531 44.917969 44.792969 45.222656 44.792969 C 46.351562 44.789062 47.394531 44.484375 48.351562 43.878906 L 50.367188 46.273438 L 50.367188 57.066406 L 58.105469 57.066406 L 58.105469 55.171875 L 52.25 55.171875 L 52.25 45.574219 L 49.777344 42.648438 C 50.207031 42.132812 50.539062 41.566406 50.777344 40.9375 C 51.015625 40.3125 51.148438 39.664062 51.167969 38.992188 C 51.191406 38.324219 51.105469 37.667969 50.90625 37.027344 C 50.710938 36.386719 50.414062 35.796875 50.019531 35.253906 Z M 44.601562 42.851562 C 44.09375 42.773438 43.617188 42.605469 43.175781 42.34375 C 42.730469 42.085938 42.347656 41.753906 42.03125 41.347656 C 41.710938 40.945312 41.476562 40.496094 41.324219 40.003906 C 41.175781 39.507812 41.121094 39.003906 41.160156 38.488281 C 41.199219 37.972656 41.328125 37.484375 41.550781 37.019531 C 41.773438 36.554688 42.074219 36.144531 42.449219 35.792969 C 42.828125 35.441406 43.253906 35.171875 43.730469 34.984375 C 44.207031 34.796875 44.703125 34.703125 45.214844 34.703125 C 45.425781 34.703125 45.632812 34.71875 45.839844 34.75 C 46.101562 34.792969 46.359375 34.859375 46.613281 34.949219 C 46.863281 35.042969 47.101562 35.15625 47.332031 35.296875 C 47.558594 35.4375 47.773438 35.597656 47.96875 35.777344 C 48.167969 35.960938 48.34375 36.160156 48.503906 36.378906 C 48.660156 36.59375 48.796875 36.824219 48.910156 37.070312 C 49.023438 37.3125 49.109375 37.566406 49.171875 37.828125 C 49.238281 38.089844 49.273438 38.351562 49.285156 38.621094 C 49.296875 38.890625 49.285156 39.160156 49.242188 39.425781 C 49.203125 39.691406 49.136719 39.949219 49.042969 40.203125 C 48.953125 40.457031 48.839844 40.695312 48.699219 40.925781 C 48.5625 41.15625 48.402344 41.371094 48.21875 41.570312 C 48.039062 41.769531 47.839844 41.945312 47.625 42.105469 C 47.410156 42.265625 47.183594 42.402344 46.941406 42.515625 C 46.695312 42.628906 46.445312 42.71875 46.1875 42.78125 C 45.925781 42.84375 45.664062 42.882812 45.398438 42.894531 C 45.128906 42.90625 44.863281 42.890625 44.601562 42.851562 Z M 44.601562 42.851562 " fill-opacity="1" fill-rule="nonzero"/><path fill="#000000" d="M 47.40625 64.050781 C 47.125 64.003906 46.84375 64.015625 46.566406 64.074219 C 46.289062 64.136719 46.03125 64.246094 45.792969 64.402344 C 45.554688 64.558594 45.355469 64.757812 45.191406 64.988281 C 45.027344 65.222656 44.910156 65.480469 44.839844 65.757812 C 44.769531 66.035156 44.753906 66.316406 44.789062 66.601562 C 44.824219 66.886719 44.910156 67.152344 45.042969 67.40625 C 45.179688 67.65625 45.355469 67.875 45.570312 68.0625 C 45.785156 68.25 46.027344 68.390625 46.296875 68.484375 C 46.566406 68.578125 46.84375 68.621094 47.128906 68.609375 C 47.410156 68.601562 47.683594 68.539062 47.945312 68.425781 C 48.207031 68.316406 48.441406 68.160156 48.644531 67.957031 C 48.847656 67.757812 49.007812 67.527344 49.125 67.265625 L 58.105469 67.265625 L 58.105469 65.371094 L 49.132812 65.371094 C 48.972656 65.019531 48.742188 64.726562 48.4375 64.492188 C 48.128906 64.257812 47.785156 64.109375 47.40625 64.050781 Z M 47.40625 64.050781 " fill-opacity="1" fill-rule="nonzero"/><path fill="#000000" d="M 71.855469 43.582031 L 73.691406 43.582031 L 73.691406 42.566406 L 72.078125 41.664062 L 72.078125 41.097656 C 72.335938 40.949219 72.539062 40.746094 72.691406 40.484375 C 72.839844 40.226562 72.914062 39.945312 72.914062 39.644531 L 72.914062 38.980469 C 72.914062 38.765625 72.875 38.558594 72.792969 38.359375 C 72.710938 38.15625 72.59375 37.980469 72.441406 37.828125 C 72.292969 37.675781 72.117188 37.554688 71.917969 37.472656 C 71.71875 37.386719 71.515625 37.347656 71.300781 37.347656 C 71.085938 37.347656 70.878906 37.386719 70.679688 37.472656 C 70.480469 37.554688 70.304688 37.675781 70.15625 37.828125 C 70.003906 37.980469 69.886719 38.15625 69.804688 38.359375 C 69.722656 38.558594 69.683594 38.765625 69.683594 38.980469 L 69.683594 39.644531 C 69.683594 39.945312 69.757812 40.226562 69.90625 40.484375 C 70.058594 40.746094 70.261719 40.949219 70.519531 41.097656 L 70.519531 41.664062 L 68.90625 42.566406 L 68.90625 43.582031 Z M 71.855469 43.582031 " fill-opacity="1" fill-rule="nonzero"/><path fill="#000000" d="M 46 39.433594 C 46.257812 39.285156 46.460938 39.082031 46.609375 38.820312 C 46.757812 38.5625 46.835938 38.28125 46.832031 37.984375 L 46.832031 37.320312 C 46.835938 37.101562 46.796875 36.894531 46.714844 36.695312 C 46.632812 36.492188 46.515625 36.316406 46.363281 36.164062 C 46.210938 36.007812 46.039062 35.890625 45.839844 35.808594 C 45.640625 35.722656 45.433594 35.683594 45.21875 35.683594 C 45.003906 35.683594 44.796875 35.722656 44.597656 35.808594 C 44.398438 35.890625 44.226562 36.007812 44.074219 36.164062 C 43.921875 36.316406 43.804688 36.492188 43.722656 36.695312 C 43.644531 36.894531 43.601562 37.101562 43.605469 37.320312 L 43.605469 37.984375 C 43.605469 38.28125 43.679688 38.5625 43.828125 38.820312 C 43.976562 39.082031 44.179688 39.285156 44.441406 39.433594 L 44.441406 40 L 42.824219 40.902344 L 42.824219 41.917969 L 47.613281 41.917969 L 47.613281 40.902344 L 46 40 Z M 46 39.433594 " fill-opacity="1" fill-rule="nonzero"/><path fill="#000000" d="M 48.421875 77.066406 C 48.679688 76.914062 48.882812 76.710938 49.03125 76.453125 C 49.183594 76.191406 49.257812 75.914062 49.257812 75.613281 L 49.257812 74.949219 C 49.257812 74.730469 49.21875 74.523438 49.136719 74.324219 C 49.054688 74.121094 48.9375 73.945312 48.785156 73.792969 C 48.636719 73.636719 48.460938 73.519531 48.261719 73.4375 C 48.0625 73.351562 47.855469 73.3125 47.640625 73.3125 C 47.425781 73.3125 47.21875 73.351562 47.019531 73.4375 C 46.824219 73.519531 46.648438 73.636719 46.496094 73.792969 C 46.34375 73.945312 46.226562 74.121094 46.148438 74.324219 C 46.066406 74.523438 46.023438 74.730469 46.027344 74.949219 L 46.027344 75.613281 C 46.027344 75.914062 46.101562 76.191406 46.25 76.453125 C 46.398438 76.710938 46.601562 76.914062 46.863281 77.066406 L 46.863281 77.628906 L 45.246094 78.53125 L 45.246094 79.546875 L 50.035156 79.546875 L 50.035156 78.53125 L 48.421875 77.628906 Z M 48.421875 77.066406 " fill-opacity="1" fill-rule="nonzero"/><g clip-path="url(#6c2dda2870)"><path fill="#000000" d="M 71.296875 49.863281 C 70.59375 49.863281 69.898438 49.929688 69.210938 50.070312 C 68.519531 50.207031 67.851562 50.410156 67.199219 50.683594 C 66.550781 50.953125 65.933594 51.285156 65.351562 51.679688 C 64.765625 52.074219 64.222656 52.519531 63.726562 53.019531 C 63.230469 53.519531 62.785156 54.066406 62.394531 54.65625 C 62.003906 55.242188 61.675781 55.863281 61.40625 56.519531 C 61.136719 57.171875 60.933594 57.847656 60.796875 58.542969 C 60.660156 59.238281 60.589844 59.9375 60.589844 60.644531 C 60.589844 61.355469 60.660156 62.054688 60.796875 62.75 C 60.933594 63.445312 61.136719 64.117188 61.40625 64.773438 C 61.675781 65.425781 62.003906 66.046875 62.394531 66.636719 C 62.785156 67.226562 63.230469 67.769531 63.726562 68.269531 C 64.222656 68.773438 64.765625 69.21875 65.351562 69.613281 C 65.933594 70.003906 66.550781 70.339844 67.199219 70.609375 C 67.851562 70.878906 68.519531 71.085938 69.210938 71.222656 C 69.898438 71.359375 70.59375 71.429688 71.296875 71.429688 C 72 71.429688 72.699219 71.359375 73.386719 71.222656 C 74.078125 71.085938 74.746094 70.878906 75.398438 70.609375 C 76.046875 70.339844 76.664062 70.003906 77.246094 69.613281 C 77.832031 69.21875 78.375 68.773438 78.871094 68.269531 C 79.367188 67.769531 79.8125 67.226562 80.203125 66.636719 C 80.59375 66.046875 80.921875 65.425781 81.191406 64.773438 C 81.460938 64.117188 81.664062 63.445312 81.800781 62.75 C 81.9375 62.054688 82.007812 61.355469 82.007812 60.644531 C 82.007812 59.9375 81.9375 59.238281 81.800781 58.542969 C 81.660156 57.847656 81.457031 57.175781 81.1875 56.519531 C 80.917969 55.867188 80.589844 55.246094 80.199219 54.65625 C 79.808594 54.070312 79.363281 53.523438 78.867188 53.023438 C 78.371094 52.523438 77.828125 52.074219 77.246094 51.683594 C 76.660156 51.289062 76.042969 50.957031 75.394531 50.6875 C 74.746094 50.414062 74.078125 50.210938 73.386719 50.070312 C 72.699219 49.933594 72 49.863281 71.296875 49.863281 Z M 78.070312 66.339844 C 77.988281 66.210938 77.878906 66.109375 77.742188 66.039062 L 74.183594 64.042969 L 74.183594 63.703125 C 74.839844 63.21875 75.355469 62.609375 75.722656 61.875 C 76.09375 61.144531 76.277344 60.367188 76.277344 59.546875 L 76.277344 57.894531 C 76.277344 57.167969 76.128906 56.476562 75.835938 55.816406 C 75.539062 55.15625 75.121094 54.585938 74.582031 54.105469 C 74.136719 53.703125 73.632812 53.394531 73.074219 53.175781 C 72.511719 52.957031 71.933594 52.847656 71.332031 52.84375 C 70.734375 52.835938 70.152344 52.941406 69.589844 53.148438 C 69.027344 53.355469 68.515625 53.660156 68.0625 54.054688 C 67.949219 54.144531 67.863281 54.230469 67.761719 54.320312 C 67.296875 54.796875 66.9375 55.34375 66.6875 55.960938 C 66.433594 56.582031 66.308594 57.222656 66.308594 57.894531 L 66.308594 59.546875 C 66.308594 60.367188 66.492188 61.144531 66.863281 61.875 C 67.230469 62.609375 67.746094 63.21875 68.402344 63.703125 L 68.402344 64.042969 L 64.855469 66.039062 C 64.71875 66.109375 64.609375 66.210938 64.527344 66.339844 C 64.171875 65.910156 63.855469 65.449219 63.585938 64.957031 C 63.3125 64.46875 63.089844 63.957031 62.914062 63.421875 C 62.742188 62.890625 62.617188 62.34375 62.546875 61.789062 C 62.472656 61.230469 62.453125 60.671875 62.488281 60.109375 C 62.519531 59.550781 62.605469 59 62.742188 58.453125 C 62.878906 57.910156 63.066406 57.382812 63.300781 56.875 C 63.539062 56.367188 63.820312 55.882812 64.144531 55.429688 C 64.472656 54.972656 64.839844 54.554688 65.246094 54.167969 C 65.648438 53.78125 66.089844 53.4375 66.558594 53.136719 C 67.027344 52.835938 67.523438 52.582031 68.042969 52.375 C 68.558594 52.167969 69.09375 52.011719 69.640625 51.90625 C 70.1875 51.800781 70.742188 51.746094 71.296875 51.746094 C 71.855469 51.746094 72.410156 51.800781 72.957031 51.90625 C 73.503906 52.011719 74.039062 52.167969 74.554688 52.375 C 75.074219 52.582031 75.566406 52.835938 76.039062 53.136719 C 76.507812 53.4375 76.945312 53.78125 77.351562 54.167969 C 77.757812 54.554688 78.125 54.972656 78.453125 55.429688 C 78.777344 55.882812 79.058594 56.367188 79.296875 56.875 C 79.53125 57.382812 79.71875 57.910156 79.855469 58.453125 C 79.992188 59 80.078125 59.550781 80.109375 60.109375 C 80.144531 60.671875 80.125 61.230469 80.050781 61.789062 C 79.980469 62.34375 79.855469 62.890625 79.679688 63.421875 C 79.507812 63.957031 79.285156 64.46875 79.011719 64.957031 C 78.742188 65.449219 78.425781 65.910156 78.070312 66.339844 Z M 78.070312 66.339844 " fill-opacity="1" fill-rule="nonzero"/></g></svg>