<svg xmlns="http://www.w3.org/2000/svg" xmlns:xlink="http://www.w3.org/1999/xlink" width="150" zoomAndPan="magnify" viewBox="0 0 112.5 112.499997" height="150" preserveAspectRatio="xMidYMid meet" version="1.0"><defs><clipPath id="2117274526"><path d="M 4.457031 4.457031 L 107.546875 4.457031 L 107.546875 107.546875 L 4.457031 107.546875 Z M 4.457031 4.457031 " clip-rule="nonzero"/></clipPath><clipPath id="73269f45d0"><path d="M 56 4.457031 C 27.535156 4.457031 4.457031 27.535156 4.457031 56 C 4.457031 84.46875 27.535156 107.546875 56 107.546875 C 84.46875 107.546875 107.546875 84.46875 107.546875 56 C 107.546875 27.535156 84.46875 4.457031 56 4.457031 Z M 56 4.457031 " clip-rule="nonzero"/></clipPath><clipPath id="e9a2cb89bb"><path d="M 0.457031 0.457031 L 103.546875 0.457031 L 103.546875 103.546875 L 0.457031 103.546875 Z M 0.457031 0.457031 " clip-rule="nonzero"/></clipPath><clipPath id="3c0018c363"><path d="M 52 0.457031 C 23.535156 0.457031 0.457031 23.535156 0.457031 52 C 0.457031 80.46875 23.535156 103.546875 52 103.546875 C 80.46875 103.546875 103.546875 80.46875 103.546875 52 C 103.546875 23.535156 80.46875 0.457031 52 0.457031 Z M 52 0.457031 " clip-rule="nonzero"/></clipPath><clipPath id="d6df674805"><rect x="0" width="104" y="0" height="104"/></clipPath></defs><g clip-path="url(#2117274526)"><g clip-path="url(#73269f45d0)"><g transform="matrix(1, 0, 0, 1, 4, 4)"><g clip-path="url(#d6df674805)"><g clip-path="url(#e9a2cb89bb)"><g clip-path="url(#3c0018c363)"><path fill="#001137" d="M 0.457031 0.457031 L 103.546875 0.457031 L 103.546875 103.546875 L 0.457031 103.546875 Z M 0.457031 0.457031 " fill-opacity="1" fill-rule="nonzero"/></g></g></g></g></g></g><path stroke-linecap="round" transform="matrix(3.266731, 0, 0, 3.266731, 16.800332, 16.800332)" fill="none" stroke-linejoin="round" d="M 17.000361 14.000181 L 17.009927 14.000181 " stroke="#ff9860" stroke-width="2" stroke-opacity="1" stroke-miterlimit="4"/><path stroke-linecap="round" transform="matrix(3.266731, 0, 0, 3.266731, 16.800332, 16.800332)" fill="none" stroke-linejoin="round" d="M 7.000159 7.000159 L 18.999684 7.000159 C 19.131218 7.000159 19.261557 7.013313 19.3907 7.038424 C 19.518647 7.063535 19.644202 7.101799 19.764975 7.152022 C 19.886943 7.202244 20.001737 7.264424 20.110552 7.337366 C 20.220562 7.410307 20.321007 7.492815 20.414276 7.586085 C 20.507546 7.678159 20.590054 7.7798 20.662996 7.888614 C 20.735938 7.998625 20.796922 8.113419 20.84834 8.234191 C 20.898562 8.356159 20.935631 8.480519 20.961938 8.609662 C 20.987049 8.738805 21.000202 8.869144 21.000202 8.999482 L 21.000202 18.999684 C 21.000202 19.131218 20.987049 19.261557 20.961938 19.3907 C 20.935631 19.518647 20.898562 19.644202 20.84834 19.764975 C 20.796922 19.886943 20.735938 20.001737 20.662996 20.110552 C 20.590054 20.220562 20.507546 20.321007 20.414276 20.414277 C 20.321007 20.507546 20.220562 20.590054 20.110552 20.662996 C 20.001737 20.735938 19.886943 20.796922 19.764975 20.84834 C 19.644202 20.898562 19.518647 20.935631 19.3907 20.961938 C 19.261557 20.987049 19.131218 21.000203 18.999684 21.000203 L 4.99964 21.000203 C 4.868106 21.000203 4.738963 20.987049 4.60982 20.961938 C 4.480677 20.935631 4.356318 20.898562 4.234349 20.84834 C 4.113577 20.796922 3.997587 20.735938 3.888773 20.662996 C 3.779958 20.590054 3.678318 20.507546 3.586244 20.414277 C 3.492974 20.321007 3.410466 20.220562 3.337524 20.110552 C 3.264582 20.001737 3.202402 19.886943 3.15218 19.764975 C 3.101958 19.644202 3.063693 19.518647 3.038582 19.3907 C 3.012275 19.261557 3.000318 19.131218 3.000318 18.999684 L 3.000318 4.999641 C 3.000318 4.868106 3.012275 4.738963 3.038582 4.60982 C 3.063693 4.480678 3.101958 4.356318 3.15218 4.23435 C 3.202402 4.113577 3.264582 3.997588 3.337524 3.888773 C 3.410466 3.779958 3.492974 3.678318 3.586244 3.586244 C 3.678318 3.492974 3.779958 3.410466 3.888773 3.337524 C 3.997587 3.264582 4.113577 3.202402 4.234349 3.15218 C 4.356318 3.101958 4.480677 3.063693 4.60982 3.038582 C 4.738963 3.012275 4.868106 3.000318 4.99964 3.000318 L 18.999684 3.000318 " stroke="#ff9860" stroke-width="2" stroke-opacity="1" stroke-miterlimit="4"/></svg>